<svg width="83" height="24" viewBox="0 0 83 24" fill="none" xmlns="http://www.w3.org/2000/svg">
<path d="M0.952 23V0.279999H9.688C12.2053 0.279999 14.3067 0.791999 15.992 1.816C17.6987 2.81867 18.9787 4.184 19.832 5.912C20.7067 7.61867 21.144 9.51733 21.144 11.608C21.144 13.912 20.664 15.9173 19.704 17.624C18.7653 19.3307 17.432 20.6533 15.704 21.592C13.9973 22.5307 11.992 23 9.688 23H0.952ZM14.808 11.608C14.808 10.4347 14.6053 9.41067 14.2 8.536C13.7947 7.64 13.208 6.94667 12.44 6.456C11.672 5.96533 10.7547 5.72 9.688 5.72H7.192V17.56H9.688C10.776 17.56 11.6933 17.304 12.44 16.792C13.208 16.28 13.7947 15.576 14.2 14.68C14.6053 13.7627 14.808 12.7387 14.808 11.608ZM27.06 0.279999L31.124 9.56L35.284 0.279999H42.068L34.228 15.48V23H28.02V15.416L20.308 0.279999H27.06ZM59.9565 17.56V23H43.7645V0.279999H59.6685V5.72H50.0045V8.92H58.2605V13.976H50.0045V17.56H59.9565ZM61.2665 11.448C61.2665 10.0613 61.5225 8.70667 62.0345 7.384C62.5678 6.04 63.3358 4.824 64.3385 3.736C65.3412 2.648 66.5572 1.784 67.9865 1.144C69.4372 0.482665 71.0692 0.151999 72.8825 0.151999C75.0585 0.151999 76.9572 0.610666 78.5785 1.528C80.1998 2.424 81.4052 3.61867 82.1945 5.112L77.4265 8.504C77.1492 7.75733 76.7438 7.18133 76.2105 6.776C75.6985 6.37067 75.1332 6.09333 74.5145 5.944C73.9172 5.77333 73.3305 5.688 72.7545 5.688C71.8585 5.688 71.0798 5.86933 70.4185 6.232C69.7785 6.57333 69.2452 7.032 68.8185 7.608C68.4132 8.184 68.1038 8.824 67.8905 9.528C67.6985 10.232 67.6025 10.936 67.6025 11.64C67.6025 12.4293 67.7198 13.1867 67.9545 13.912C68.1892 14.6373 68.5305 15.288 68.9785 15.864C69.4265 16.4187 69.9705 16.856 70.6105 17.176C71.2718 17.496 72.0078 17.656 72.8185 17.656C73.3945 17.656 73.9812 17.5707 74.5785 17.4C75.1758 17.208 75.7198 16.9093 76.2105 16.504C76.7012 16.0987 77.0745 15.5547 77.3305 14.872L82.4185 17.912C81.9705 19.0213 81.2238 19.9707 80.1785 20.76C79.1332 21.5493 77.9492 22.1573 76.6265 22.584C75.3038 22.9893 73.9918 23.192 72.6905 23.192C71.0052 23.192 69.4585 22.8613 68.0505 22.2C66.6638 21.5173 65.4585 20.6213 64.4345 19.512C63.4318 18.3813 62.6532 17.1227 62.0985 15.736C61.5438 14.328 61.2665 12.8987 61.2665 11.448Z" fill="url(#paint0_diamond_64_4821)"/>
<path d="M0.952 23V0.279999H9.688C12.2053 0.279999 14.3067 0.791999 15.992 1.816C17.6987 2.81867 18.9787 4.184 19.832 5.912C20.7067 7.61867 21.144 9.51733 21.144 11.608C21.144 13.912 20.664 15.9173 19.704 17.624C18.7653 19.3307 17.432 20.6533 15.704 21.592C13.9973 22.5307 11.992 23 9.688 23H0.952ZM14.808 11.608C14.808 10.4347 14.6053 9.41067 14.2 8.536C13.7947 7.64 13.208 6.94667 12.44 6.456C11.672 5.96533 10.7547 5.72 9.688 5.72H7.192V17.56H9.688C10.776 17.56 11.6933 17.304 12.44 16.792C13.208 16.28 13.7947 15.576 14.2 14.68C14.6053 13.7627 14.808 12.7387 14.808 11.608ZM27.06 0.279999L31.124 9.56L35.284 0.279999H42.068L34.228 15.48V23H28.02V15.416L20.308 0.279999H27.06ZM59.9565 17.56V23H43.7645V0.279999H59.6685V5.72H50.0045V8.92H58.2605V13.976H50.0045V17.56H59.9565ZM61.2665 11.448C61.2665 10.0613 61.5225 8.70667 62.0345 7.384C62.5678 6.04 63.3358 4.824 64.3385 3.736C65.3412 2.648 66.5572 1.784 67.9865 1.144C69.4372 0.482665 71.0692 0.151999 72.8825 0.151999C75.0585 0.151999 76.9572 0.610666 78.5785 1.528C80.1998 2.424 81.4052 3.61867 82.1945 5.112L77.4265 8.504C77.1492 7.75733 76.7438 7.18133 76.2105 6.776C75.6985 6.37067 75.1332 6.09333 74.5145 5.944C73.9172 5.77333 73.3305 5.688 72.7545 5.688C71.8585 5.688 71.0798 5.86933 70.4185 6.232C69.7785 6.57333 69.2452 7.032 68.8185 7.608C68.4132 8.184 68.1038 8.824 67.8905 9.528C67.6985 10.232 67.6025 10.936 67.6025 11.64C67.6025 12.4293 67.7198 13.1867 67.9545 13.912C68.1892 14.6373 68.5305 15.288 68.9785 15.864C69.4265 16.4187 69.9705 16.856 70.6105 17.176C71.2718 17.496 72.0078 17.656 72.8185 17.656C73.3945 17.656 73.9812 17.5707 74.5785 17.4C75.1758 17.208 75.7198 16.9093 76.2105 16.504C76.7012 16.0987 77.0745 15.5547 77.3305 14.872L82.4185 17.912C81.9705 19.0213 81.2238 19.9707 80.1785 20.76C79.1332 21.5493 77.9492 22.1573 76.6265 22.584C75.3038 22.9893 73.9918 23.192 72.6905 23.192C71.0052 23.192 69.4585 22.8613 68.0505 22.2C66.6638 21.5173 65.4585 20.6213 64.4345 19.512C63.4318 18.3813 62.6532 17.1227 62.0985 15.736C61.5438 14.328 61.2665 12.8987 61.2665 11.448Z" fill="url(#paint1_diamond_64_4821)"/>
<path d="M0.952 23V0.279999H9.688C12.2053 0.279999 14.3067 0.791999 15.992 1.816C17.6987 2.81867 18.9787 4.184 19.832 5.912C20.7067 7.61867 21.144 9.51733 21.144 11.608C21.144 13.912 20.664 15.9173 19.704 17.624C18.7653 19.3307 17.432 20.6533 15.704 21.592C13.9973 22.5307 11.992 23 9.688 23H0.952ZM14.808 11.608C14.808 10.4347 14.6053 9.41067 14.2 8.536C13.7947 7.64 13.208 6.94667 12.44 6.456C11.672 5.96533 10.7547 5.72 9.688 5.72H7.192V17.56H9.688C10.776 17.56 11.6933 17.304 12.44 16.792C13.208 16.28 13.7947 15.576 14.2 14.68C14.6053 13.7627 14.808 12.7387 14.808 11.608ZM27.06 0.279999L31.124 9.56L35.284 0.279999H42.068L34.228 15.48V23H28.02V15.416L20.308 0.279999H27.06ZM59.9565 17.56V23H43.7645V0.279999H59.6685V5.72H50.0045V8.92H58.2605V13.976H50.0045V17.56H59.9565ZM61.2665 11.448C61.2665 10.0613 61.5225 8.70667 62.0345 7.384C62.5678 6.04 63.3358 4.824 64.3385 3.736C65.3412 2.648 66.5572 1.784 67.9865 1.144C69.4372 0.482665 71.0692 0.151999 72.8825 0.151999C75.0585 0.151999 76.9572 0.610666 78.5785 1.528C80.1998 2.424 81.4052 3.61867 82.1945 5.112L77.4265 8.504C77.1492 7.75733 76.7438 7.18133 76.2105 6.776C75.6985 6.37067 75.1332 6.09333 74.5145 5.944C73.9172 5.77333 73.3305 5.688 72.7545 5.688C71.8585 5.688 71.0798 5.86933 70.4185 6.232C69.7785 6.57333 69.2452 7.032 68.8185 7.608C68.4132 8.184 68.1038 8.824 67.8905 9.528C67.6985 10.232 67.6025 10.936 67.6025 11.64C67.6025 12.4293 67.7198 13.1867 67.9545 13.912C68.1892 14.6373 68.5305 15.288 68.9785 15.864C69.4265 16.4187 69.9705 16.856 70.6105 17.176C71.2718 17.496 72.0078 17.656 72.8185 17.656C73.3945 17.656 73.9812 17.5707 74.5785 17.4C75.1758 17.208 75.7198 16.9093 76.2105 16.504C76.7012 16.0987 77.0745 15.5547 77.3305 14.872L82.4185 17.912C81.9705 19.0213 81.2238 19.9707 80.1785 20.76C79.1332 21.5493 77.9492 22.1573 76.6265 22.584C75.3038 22.9893 73.9918 23.192 72.6905 23.192C71.0052 23.192 69.4585 22.8613 68.0505 22.2C66.6638 21.5173 65.4585 20.6213 64.4345 19.512C63.4318 18.3813 62.6532 17.1227 62.0985 15.736C61.5438 14.328 61.2665 12.8987 61.2665 11.448Z" fill="url(#paint2_radial_64_4821)" fill-opacity="0.8"/>
<defs>
<radialGradient id="paint0_diamond_64_4821" cx="0" cy="0" r="1" gradientUnits="userSpaceOnUse" gradientTransform="translate(53.0978 10.75) rotate(-5.89912) scale(12.1622 14.0937)">
<stop stop-color="#0C83E4"/>
<stop offset="1" stop-color="#1088C2"/>
</radialGradient>
<radialGradient id="paint1_diamond_64_4821" cx="0" cy="0" r="1" gradientUnits="userSpaceOnUse" gradientTransform="translate(41 12) rotate(-29.7449) scale(4.03113 8.91092)">
<stop stop-color="#0C83E4"/>
<stop offset="0.630208" stop-color="#1088C2" stop-opacity="0.818802"/>
<stop offset="1" stop-color="#1088C2"/>
</radialGradient>
<radialGradient id="paint2_radial_64_4821" cx="0" cy="0" r="1" gradientUnits="userSpaceOnUse" gradientTransform="translate(41 12) rotate(90) scale(31 163.451)">
<stop stop-color="#6C5CE4"/>
<stop offset="1" stop-color="#0F32AA" stop-opacity="0"/>
</radialGradient>
</defs>
</svg>
