<svg width="512" height="512" viewBox="0 0 512 512" fill="none" xmlns="http://www.w3.org/2000/svg">
<mask id="mask0_116_6514" style="mask-type:luminance" maskUnits="userSpaceOnUse" x="0" y="0" width="512" height="512">
<path d="M256 512C397.385 512 512 397.385 512 256C512 114.615 397.385 0 256 0C114.615 0 0 114.615 0 256C0 397.385 114.615 512 256 512Z" fill="white"/>
</mask>
<g mask="url(#mask0_116_6514)">
<path d="M0 384L254.7 351.3L512 383.9V512H0V384Z" fill="#D80027"/>
<path d="M0 256L255 229L512 256V384H0V256Z" fill="#0052B4"/>
<path d="M0 0H512V256H0V0Z" fill="#FFDA44"/>
<path d="M256 345C305.153 345 345 305.153 345 256C345 206.847 305.153 167 256 167C206.847 167 167 206.847 167 256C167 305.153 206.847 345 256 345Z" fill="#FFDA44"/>
<path d="M256 311.6C225.3 311.6 200.3 286.6 200.3 256V222.6C200.3 207.827 206.168 193.66 216.614 183.214C227.06 172.768 241.227 166.9 256 166.9C270.773 166.9 284.94 172.768 295.386 183.214C305.832 193.66 311.7 207.827 311.7 222.6V256C311.7 286.6 286.7 311.6 256 311.6V311.6Z" fill="#338AF3"/>
<path d="M345 122.4H278.3C278.3 116.486 275.951 110.814 271.768 106.632C267.586 102.45 261.914 100.1 256 100.1C250.086 100.1 244.414 102.45 240.232 106.632C236.049 110.814 233.7 116.486 233.7 122.4H167C167.182 128.378 169.685 134.05 173.979 138.213C178.273 142.376 184.019 144.703 190 144.7H189.2C189.2 157 199.2 167 211.5 167C211.5 179.3 221.5 189.2 233.7 189.2H278.3C290.6 189.2 300.5 179.2 300.5 167C312.8 167 322.8 157 322.8 144.7H322C327.981 144.703 333.727 142.376 338.021 138.213C342.315 134.05 344.818 128.378 345 122.4V122.4Z" fill="#333333"/>
</g>
</svg>
