<svg width="16" height="16" viewBox="0 0 16 16" fill="none" xmlns="http://www.w3.org/2000/svg">
<path d="M3.20091 16.0005C2.70863 16.0004 2.22301 15.8867 1.78179 15.6684C1.34056 15.4501 0.955627 15.133 0.656895 14.7417C0.358162 14.3504 0.15368 13.8955 0.0593407 13.4124C-0.0349986 12.9292 -0.0166537 12.4308 0.112949 11.9559C0.242553 11.481 0.479923 11.0423 0.806612 10.6741C1.1333 10.3058 1.54051 10.0179 1.99659 9.83257C2.45266 9.64728 2.94533 9.56965 3.43628 9.60572C3.92724 9.64179 4.40327 9.79059 4.82737 10.0405L10.0477 4.8202C9.65298 4.14955 9.51635 3.35798 9.66343 2.59381C9.81051 1.82964 10.2312 1.14534 10.8467 0.669126C11.4622 0.192915 12.2302 -0.0425125 13.0068 0.00696074C13.7834 0.0564339 14.5153 0.387412 15.0654 0.937872C15.6155 1.48833 15.9459 2.22049 15.9948 2.99714C16.0438 3.77379 15.8078 4.54163 15.3312 5.15677C14.8545 5.77191 14.1699 6.19212 13.4056 6.33866C12.6414 6.48519 11.8499 6.348 11.1795 5.95279L5.95996 11.1723C6.2468 11.6587 6.39991 12.2123 6.40378 12.7769C6.40765 13.3415 6.26213 13.8971 5.98198 14.3873C5.70184 14.8776 5.29703 15.285 4.80861 15.5683C4.3202 15.8516 3.76555 16.0007 3.20091 16.0005ZM3.20091 11.198C2.77634 11.198 2.36916 11.3666 2.06894 11.6668C1.76873 11.9671 1.60007 12.3742 1.60007 12.7988C1.60007 13.2234 1.76873 13.6306 2.06894 13.9308C2.36916 14.231 2.77634 14.3996 3.20091 14.3996C3.62548 14.3996 4.03266 14.231 4.33288 13.9308C4.63309 13.6306 4.80175 13.2234 4.80175 12.7988C4.80175 12.3742 4.63309 11.9671 4.33288 11.6668C4.03266 11.3666 3.62548 11.198 3.20091 11.198ZM12.806 1.5929C12.4925 1.59321 12.186 1.68556 11.9245 1.85849C11.6631 2.03141 11.4581 2.27729 11.3351 2.56564C11.2121 2.85398 11.1765 3.17209 11.2326 3.4805C11.2888 3.78891 11.4343 4.07404 11.651 4.30053C11.8677 4.52702 12.1462 4.68489 12.4518 4.75455C12.7575 4.82422 13.0768 4.80261 13.3703 4.69242C13.6638 4.58223 13.9185 4.38829 14.1027 4.13468C14.287 3.88107 14.3927 3.57894 14.4068 3.26578V3.58595V3.19374C14.4068 2.76917 14.2382 2.36199 13.9379 2.06177C13.6377 1.76156 13.2305 1.5929 12.806 1.5929Z" fill="white"/>
</svg>
