<svg width="31" height="30" viewBox="0 0 31 30" fill="none" xmlns="http://www.w3.org/2000/svg">
<path d="M15.3724 9.15527e-05C13.3537 9.15527e-05 11.3547 0.397711 9.48964 1.17025C7.62457 1.94278 5.92993 3.0751 4.50247 4.50256C1.61959 7.38545 0 11.2955 0 15.3725C0 22.1671 4.41188 27.9318 10.5147 29.9763C11.2833 30.0993 11.5293 29.6227 11.5293 29.2077V26.6097C7.27115 27.5321 6.36418 24.5498 6.36418 24.5498C5.65704 22.7666 4.65784 22.2901 4.65784 22.2901C3.25895 21.337 4.76545 21.3677 4.76545 21.3677C6.30269 21.4753 7.11742 22.9511 7.11742 22.9511C8.45482 25.2877 10.7146 24.5959 11.5908 24.227C11.7291 23.2278 12.1288 22.5514 12.5593 22.1671C9.14658 21.7828 5.56481 20.4608 5.56481 14.6039C5.56481 12.8975 6.14896 11.5294 7.14817 10.438C6.99444 10.0536 6.45641 8.45491 7.30189 6.37964C7.30189 6.37964 8.59317 5.96458 11.5293 7.94763C12.7437 7.60943 14.0658 7.44034 15.3724 7.44034C16.6791 7.44034 18.0011 7.60943 19.2155 7.94763C22.1516 5.96458 23.4429 6.37964 23.4429 6.37964C24.2884 8.45491 23.7504 10.0536 23.5966 10.438C24.5958 11.5294 25.18 12.8975 25.18 14.6039C25.18 20.4761 21.5829 21.7674 18.1548 22.1517C18.7082 22.6283 19.2155 23.566 19.2155 24.9956V29.2077C19.2155 29.6227 19.4615 30.1146 20.2455 29.9763C26.3483 27.9164 30.7448 22.1671 30.7448 15.3725C30.7448 13.3538 30.3472 11.3548 29.5747 9.48973C28.8021 7.62467 27.6698 5.93002 26.2423 4.50256C24.8149 3.0751 23.1202 1.94278 21.2552 1.17025C19.3901 0.397711 17.3911 9.15527e-05 15.3724 9.15527e-05Z" fill="white"/>
</svg>
