<svg width="30" height="30" viewBox="0 0 30 30" fill="none" xmlns="http://www.w3.org/2000/svg">
<path d="M26.6667 9.15527e-05C27.5507 9.15527e-05 28.3986 0.351281 29.0237 0.976402C29.6488 1.60152 30 2.44937 30 3.33342V26.6668C30 27.5508 29.6488 28.3987 29.0237 29.0238C28.3986 29.6489 27.5507 30.0001 26.6667 30.0001H3.33333C2.44928 30.0001 1.60143 29.6489 0.976311 29.0238C0.351189 28.3987 0 27.5508 0 26.6668V3.33342C0 2.44937 0.351189 1.60152 0.976311 0.976402C1.60143 0.351281 2.44928 9.15527e-05 3.33333 9.15527e-05H26.6667ZM25.8333 25.8334V17.0001C25.8333 15.5591 25.2609 14.1771 24.2419 13.1581C23.223 12.1392 21.841 11.5668 20.4 11.5668C18.9833 11.5668 17.3333 12.4334 16.5333 13.7334V11.8834H11.8833V25.8334H16.5333V17.6168C16.5333 16.3334 17.5667 15.2834 18.85 15.2834C19.4688 15.2834 20.0623 15.5293 20.4999 15.9668C20.9375 16.4044 21.1833 16.9979 21.1833 17.6168V25.8334H25.8333ZM6.46667 9.26676C7.20927 9.26676 7.92146 8.97176 8.44657 8.44666C8.97167 7.92156 9.26667 7.20936 9.26667 6.46676C9.26667 4.91676 8.01667 3.65009 6.46667 3.65009C5.71964 3.65009 5.00321 3.94685 4.47498 4.47507C3.94675 5.0033 3.65 5.71973 3.65 6.46676C3.65 8.01676 4.91667 9.26676 6.46667 9.26676ZM8.78333 25.8334V11.8834H4.16667V25.8334H8.78333Z" fill="white"/>
</svg>
