<svg width="30" height="30" viewBox="0 0 30 30" fill="none" xmlns="http://www.w3.org/2000/svg">
<path d="M25.4999 4.36517C24.1247 2.97606 22.4867 1.87468 20.6814 1.12525C18.8761 0.375831 16.9396 -0.0066286 14.985 0.000180907C6.79498 0.000180907 0.12 6.67516 0.12 14.8651C0.12 17.4901 0.809998 20.0401 2.09999 22.2901L0 30.0001L7.87498 27.9301C10.05 29.1151 12.495 29.7451 14.985 29.7451C23.1749 29.7451 29.8499 23.0701 29.8499 14.8801C29.8499 10.9051 28.3049 7.17016 25.4999 4.36517ZM14.985 27.2251C12.765 27.2251 10.59 26.6251 8.68497 25.5001L8.23498 25.2301L3.55499 26.4601L4.79999 21.9001L4.49999 21.4351C3.26661 19.4656 2.6117 17.189 2.60999 14.8651C2.60999 8.05516 8.15998 2.50517 14.97 2.50517C18.2699 2.50517 21.3749 3.79517 23.6999 6.13516C24.8512 7.2811 25.7635 8.64415 26.384 10.1453C27.0046 11.6464 27.321 13.2558 27.3149 14.8801C27.3449 21.6901 21.7949 27.2251 14.985 27.2251ZM21.7649 17.9851C21.3899 17.8051 19.5599 16.9051 19.2299 16.7701C18.8849 16.6501 18.6449 16.5901 18.3899 16.9501C18.1349 17.3251 17.4299 18.1651 17.2199 18.4051C17.0099 18.6601 16.785 18.6901 16.41 18.4951C16.035 18.3151 14.835 17.9101 13.425 16.6501C12.315 15.6601 11.58 14.4451 11.355 14.0701C11.145 13.6951 11.325 13.5001 11.52 13.3051C11.685 13.1401 11.895 12.8701 12.075 12.6601C12.255 12.4501 12.33 12.2851 12.45 12.0451C12.57 11.7901 12.51 11.5801 12.42 11.4001C12.33 11.2201 11.58 9.39015 11.28 8.64016C10.98 7.92016 10.665 8.01016 10.44 7.99516H9.71997C9.46497 7.99516 9.07497 8.08516 8.72997 8.46016C8.39997 8.83515 7.43998 9.73515 7.43998 11.5651C7.43998 13.3951 8.77497 15.1651 8.95497 15.4051C9.13497 15.6601 11.58 19.4101 15.3 21.0151C16.185 21.4051 16.875 21.6301 17.4149 21.7951C18.2999 22.0801 19.1099 22.0351 19.7549 21.9451C20.4749 21.8401 21.9599 21.0451 22.2599 20.1751C22.5749 19.3051 22.5749 18.5701 22.4699 18.4051C22.3649 18.2401 22.1399 18.1651 21.7649 17.9851Z" fill="white"/>
</svg>
