<svg width="36" height="36" viewBox="0 0 36 36" fill="none" xmlns="http://www.w3.org/2000/svg">
<g clip-path="url(#clip0_21_6)">
<path d="M36 27C36 28.0609 35.5786 29.0783 34.8284 29.8284C34.0783 30.5786 33.0609 31 32 31H4C2.93913 31 1.92172 30.5786 1.17157 29.8284C0.421427 29.0783 0 28.0609 0 27V9C0 7.93913 0.421427 6.92172 1.17157 6.17157C1.92172 5.42143 2.93913 5 4 5H32C33.0609 5 34.0783 5.42143 34.8284 6.17157C35.5786 6.92172 36 7.93913 36 9V27Z" fill="#ED1C23"/>
<path d="M0 17H36V24H0V17Z" fill="#034EA2"/>
<path d="M36 17V9C36 7.93913 35.5786 6.92172 34.8284 6.17157C34.0783 5.42143 33.0609 5 32 5H4C2.93913 5 1.92172 5.42143 1.17157 6.17157C0.421427 6.92172 0 7.93913 0 9L0 17H36Z" fill="#FFDD00"/>
<path d="M23 19C23 19.5304 22.7893 20.0391 22.4142 20.4142C22.0391 20.7893 21.5304 21 21 21H15C14.4696 21 13.9609 20.7893 13.5858 20.4142C13.2107 20.0391 13 19.5304 13 19V16C13 15.4696 13.2107 14.9609 13.5858 14.5858C13.9609 14.2107 14.4696 14 15 14H21C21.5304 14 22.0391 14.2107 22.4142 14.5858C22.7893 14.9609 23 15.4696 23 16V19Z" fill="#FFDD00"/>
<path d="M22 18C22 19.104 21.104 21 20 21H16C14.896 21 14 19.104 14 18V17C14 16.4696 14.2107 15.9609 14.5858 15.5858C14.9609 15.2107 15.4696 15 16 15H20C20.5304 15 21.0391 15.2107 21.4142 15.5858C21.7893 15.9609 22 16.4696 22 17V18Z" fill="#034EA2"/>
<path d="M21 18C21 19.104 20.104 21 19 21H17C15.896 21 15 19.104 15 18V17C15 16.4696 15.2107 15.9609 15.5858 15.5858C15.9609 15.2107 16.4696 15 17 15H19C19.5304 15 20.0391 15.2107 20.4142 15.5858C20.7893 15.9609 21 16.4696 21 17V18Z" fill="#ED1C23"/>
<path d="M19.973 14.135C19.84 14.623 19.012 15 18 15C16.988 15 16.16 14.623 16.027 14.135C14.822 14.307 15 14.628 15 15C15 15.552 15.791 16 18 16C20.209 16 21 15.552 21 15C21 14.628 21.178 14.307 19.973 14.135Z" fill="#6DBE46"/>
<path d="M19 19C19 19.2652 18.8946 19.5196 18.7071 19.7071C18.5196 19.8946 18.2652 20 18 20C17.7348 20 17.4804 19.8946 17.2929 19.7071C17.1054 19.5196 17 19.2652 17 19V16C17 15.7348 17.1054 15.4804 17.2929 15.2929C17.4804 15.1054 17.7348 15 18 15C18.2652 15 18.5196 15.1054 18.7071 15.2929C18.8946 15.4804 19 15.7348 19 16V19Z" fill="#A6D388"/>
<path d="M21.5 12.0001C21.94 12.0001 22.358 12.0521 22.746 12.1371C22.123 11.0611 20 10.0001 18 12.0001C16 10.0001 13.877 11.0611 13.254 12.1371C13.6632 12.0467 14.081 12.0007 14.5 12.0001C16.433 12.0001 18 12.8961 18 14.0001C18 12.8961 19.566 12.0001 21.5 12.0001Z" fill="#662113"/>
<path d="M18 21C19.1046 21 20 19.433 20 17.5C20 15.567 19.1046 14 18 14C16.8954 14 16 15.567 16 17.5C16 19.433 16.8954 21 18 21Z" fill="#8ED2E7"/>
<path d="M17.5 17C16.964 17 16.463 17.13 16.009 17.345C16.008 17.397 16 17.447 16 17.5C16 19.433 16.896 21 18 21C19.003 21 19.825 19.705 19.97 18.021C19.6455 17.697 19.2603 17.44 18.8365 17.2648C18.4127 17.0897 17.9586 16.9997 17.5 17Z" fill="#6DBE46"/>
<path d="M18 23C19.6569 23 21 22.5523 21 22C21 21.4477 19.6569 21 18 21C16.3431 21 15 21.4477 15 22C15 22.5523 16.3431 23 18 23Z" fill="#FFCC4D"/>
<path d="M20 23C20 23.828 19.104 24 18 24C16.896 24 16 23.828 16 23C16 22.172 16.896 21 18 21C19.104 21 20 22.172 20 23Z" fill="#034EA2"/>
<path d="M17 23C17 22.172 17.448 21 18 21C18.552 21 19 22.172 19 23C19 23.828 18.552 24 18 24C17.448 24 17 23.828 17 23Z" fill="#ED1C23"/>
<path d="M17 11C17 10.448 17.448 11 18 11C18.552 11 19 10.448 19 11C19 11.2652 18.8946 11.5195 18.7071 11.7071C18.5196 11.8946 18.2652 12 18 12C17.7348 12 17.4804 11.8946 17.2929 11.7071C17.1054 11.5195 17 11.2652 17 11Z" fill="#CCD6DD"/>
<path d="M18 18C18.5523 18 19 17.7761 19 17.5C19 17.2239 18.5523 17 18 17C17.4477 17 17 17.2239 17 17.5C17 17.7761 17.4477 18 18 18Z" fill="white"/>
<path d="M13 16C13.5523 16 14 15.7761 14 15.5C14 15.2239 13.5523 15 13 15C12.4477 15 12 15.2239 12 15.5C12 15.7761 12.4477 16 13 16Z" fill="#C1694F"/>
<path d="M14 14C14.5523 14 15 13.7761 15 13.5C15 13.2239 14.5523 13 14 13C13.4477 13 13 13.2239 13 13.5C13 13.7761 13.4477 14 14 14Z" fill="#C1694F"/>
<path d="M23 16C23.5523 16 24 15.7761 24 15.5C24 15.2239 23.5523 15 23 15C22.4477 15 22 15.2239 22 15.5C22 15.7761 22.4477 16 23 16Z" fill="#C1694F"/>
<path d="M22 14C22.5523 14 23 13.7761 23 13.5C23 13.2239 22.5523 13 22 13C21.4477 13 21 13.2239 21 13.5C21 13.7761 21.4477 14 22 14Z" fill="#C1694F"/>
</g>
<defs>
<clipPath id="clip0_21_6">
<rect width="36" height="36" fill="white"/>
</clipPath>
</defs>
</svg>
