<svg width="320" height="857" viewBox="0 0 320 857" fill="none" xmlns="http://www.w3.org/2000/svg">
<path d="M271.56 77.5L334.56 77.5L366.06 132.06L334.56 186.619L271.56 186.619L240.06 132.06L271.56 77.5Z" fill="#D7EDFE" fill-opacity="0.3"/>
<path d="M-0.440401 31.5L62.5596 31.5L94.0596 86.0596L62.5596 140.619L-0.4404 140.619L-31.9404 86.0596L-0.440401 31.5Z" fill="#D7EDFE" fill-opacity="0.3"/>
<path d="M17.3013 745L67.3013 745L92.3013 788.301L67.3013 831.603L17.3013 831.603L-7.69873 788.301L17.3013 745Z" fill="#D7EDFE" fill-opacity="0.3"/>
<path d="M51.6506 383.5L76.6506 383.5L89.1506 405.151L76.6506 426.801L51.6506 426.801L39.1506 405.151L51.6506 383.5Z" fill="#D7EDFE" fill-opacity="0.3"/>
<path d="M127.56 479.5L190.56 479.5L222.06 534.06L190.56 588.619L127.56 588.619L96.0596 534.06L127.56 479.5Z" fill="#D7EDFE" fill-opacity="0.3"/>
</svg>
