<svg width="320" height="992" viewBox="0 0 320 992" fill="none" xmlns="http://www.w3.org/2000/svg">
<path d="M262.56 89.7499L325.56 89.7499L357.06 152.933L325.56 216.117L262.56 216.117L231.06 152.933L262.56 89.7499Z" fill="#D7EDFE" fill-opacity="0.3"/>
<path d="M-9.4404 36.479L53.5596 36.479L85.0596 99.6625L53.5596 162.846L-9.4404 162.846L-40.9404 99.6625L-9.4404 36.479Z" fill="#D7EDFE" fill-opacity="0.3"/>
<path d="M8.30127 862.757L58.3013 862.757L83.3013 912.903L58.3013 963.048L8.30127 963.048L-16.6987 912.903L8.30127 862.757Z" fill="#D7EDFE" fill-opacity="0.3"/>
<path d="M42.6506 444.117L67.6506 444.117L80.1506 469.19L67.6506 494.263L42.6506 494.263L30.1506 469.19L42.6506 444.117Z" fill="#D7EDFE" fill-opacity="0.3"/>
<path d="M118.56 555.291L181.56 555.291L213.06 618.475L181.56 681.658L118.56 681.658L87.0596 618.475L118.56 555.291Z" fill="#D7EDFE" fill-opacity="0.3"/>
<path d="M-8.4404 270.5L54.5596 270.5L86.0596 325.06L54.5596 379.619L-8.4404 379.619L-39.9404 325.06L-8.4404 270.5Z" fill="#D7EDFE" fill-opacity="0.3"/>
</svg>
