<svg width="120" height="119" viewBox="0 0 120 119" fill="none" xmlns="http://www.w3.org/2000/svg">
<g filter="url(#filter0_d_37_1206)">
<path d="M60 0L111.962 27.75V83.25L60 111L8.03848 83.25V27.75L60 0Z" fill="#FBFCFC"/>
<path d="M10.0385 28.9492L60 2.26734L109.962 28.9492V82.0508L60 108.733L10.0385 82.0508V28.9492Z" stroke="white" stroke-width="4"/>
</g>
<path d="M50.6808 31.0095H66.3794L50.0829 79.2916C49.9163 79.7887 49.5979 80.221 49.1725 80.5276C48.7472 80.8341 48.2363 80.9993 47.712 81H35.4948C35.0981 80.9991 34.7073 80.9038 34.3548 80.7219C34.0022 80.54 33.6981 80.2768 33.4675 79.954C33.2369 79.6312 33.0865 79.2581 33.0287 78.8657C32.9709 78.4732 33.0075 78.0726 33.1353 77.697L48.3213 32.7084C48.4879 32.2113 48.8063 31.779 49.2317 31.4724C49.6571 31.1659 50.1679 31.0007 50.6922 31L50.6808 31.0095Z" fill="url(#paint0_linear_37_1206)"/>
<path d="M73.492 63.3936H48.6002C48.3688 63.3935 48.1428 63.4631 47.9516 63.5933C47.7603 63.7235 47.6127 63.9082 47.5279 64.1235C47.4431 64.3388 47.4251 64.5745 47.4762 64.8002C47.5273 65.0258 47.6451 65.2309 47.8143 65.3886L63.8109 80.3184C64.2748 80.751 64.885 80.9924 65.5193 80.9942H79.6157L73.492 63.3936Z" fill="#0078D4"/>
<path d="M50.6808 31.0095C50.1514 31.0076 49.6353 31.1749 49.2077 31.487C48.7802 31.7992 48.4636 32.2398 48.3041 32.7445L33.1466 77.6553C33.0113 78.0326 32.9688 78.4369 33.0227 78.8341C33.0767 79.2313 33.2255 79.6097 33.4565 79.9372C33.6876 80.2647 33.9941 80.5318 34.3502 80.7158C34.7063 80.8998 35.1015 80.9953 35.5023 80.9944H48.0308C48.4975 80.911 48.9338 80.7052 49.295 80.398C49.6562 80.0909 49.9293 79.6934 50.0866 79.2461L53.1086 70.3376L63.9059 80.4097C64.3585 80.7842 64.9263 80.9914 65.5137 80.9963H79.5608L73.401 63.3956H55.4454L66.4363 31.0095H50.6808Z" fill="url(#paint1_linear_37_1206)"/>
<path d="M70.7322 32.7084C70.5663 32.2113 70.2483 31.7788 69.8231 31.4723C69.398 31.1657 68.8873 31.0005 68.3632 31H50.8689C51.393 31.0005 51.9037 31.1657 52.3288 31.4723C52.754 31.7788 53.072 32.2113 53.2379 32.7084L68.4239 77.697C68.5508 78.0731 68.5863 78.474 68.5275 78.8666C68.4687 79.2591 68.3173 79.632 68.0858 79.9544C67.8543 80.2768 67.5494 80.5394 67.1962 80.7206C66.8431 80.9018 66.4518 80.9962 66.0549 80.9962H83.5511C83.9469 80.9941 84.3366 80.8981 84.688 80.7161C85.0394 80.534 85.3426 80.2711 85.5726 79.949C85.8026 79.6269 85.9528 79.2548 86.011 78.8633C86.0691 78.4718 86.0334 78.0721 85.9069 77.697L70.7322 32.7084Z" fill="url(#paint2_linear_37_1206)"/>
<defs>
<filter id="filter0_d_37_1206" x="4.03845" y="0" width="111.923" height="119" filterUnits="userSpaceOnUse" color-interpolation-filters="sRGB">
<feFlood flood-opacity="0" result="BackgroundImageFix"/>
<feColorMatrix in="SourceAlpha" type="matrix" values="0 0 0 0 0 0 0 0 0 0 0 0 0 0 0 0 0 0 127 0" result="hardAlpha"/>
<feOffset dy="4"/>
<feGaussianBlur stdDeviation="2"/>
<feComposite in2="hardAlpha" operator="out"/>
<feColorMatrix type="matrix" values="0 0 0 0 0 0 0 0 0 0 0 0 0 0 0 0 0 0 0.25 0"/>
<feBlend mode="normal" in2="BackgroundImageFix" result="effect1_dropShadow_37_1206"/>
<feBlend mode="normal" in="SourceGraphic" in2="effect1_dropShadow_37_1206" result="shape"/>
</filter>
<linearGradient id="paint0_linear_37_1206" x1="52.5605" y1="34.768" x2="37.6397" y2="80.2595" gradientUnits="userSpaceOnUse">
<stop stop-color="#114A8B"/>
<stop offset="1" stop-color="#0669BC"/>
</linearGradient>
<linearGradient id="paint1_linear_37_1206" x1="60.6192" y1="57.837" x2="57.6035" y2="58.6396" gradientUnits="userSpaceOnUse">
<stop stop-opacity="0.3"/>
<stop offset="0.071" stop-opacity="0.2"/>
<stop offset="0.321" stop-opacity="0.1"/>
<stop offset="0.623" stop-opacity="0.05"/>
<stop offset="1" stop-opacity="0"/>
</linearGradient>
<linearGradient id="paint2_linear_37_1206" x1="64.3662" y1="32.9345" x2="81.4104" y2="77.4864" gradientUnits="userSpaceOnUse">
<stop stop-color="#3CCBF4"/>
<stop offset="1" stop-color="#2892DF"/>
</linearGradient>
</defs>
</svg>
