<svg width="120" height="119" viewBox="0 0 120 119" fill="none" xmlns="http://www.w3.org/2000/svg">
<g filter="url(#filter0_d_38_1341)">
<path d="M60 0L111.962 27.75V83.25L60 111L8.03848 83.25V27.75L60 0Z" fill="#354F62"/>
<path d="M10.0385 28.9492L60 2.26734L109.962 28.9492V82.0508L60 108.733L10.0385 82.0508V28.9492Z" stroke="white" stroke-width="4"/>
</g>
<path d="M51.3333 81C55.9333 81 59.6667 77.2666 59.6667 72.6666V64.3333H51.3333C46.7333 64.3333 43 68.0666 43 72.6666C43 77.2666 46.7333 81 51.3333 81Z" fill="#0ACF83"/>
<path d="M43 56C43 51.4 46.7333 47.6667 51.3333 47.6667H59.6667V64.3334H51.3333C46.7333 64.3334 43 60.6 43 56Z" fill="#A259FF"/>
<path d="M43 39.3333C43 34.7333 46.7333 31 51.3333 31H59.6667V47.6667H51.3333C46.7333 47.6667 43 43.9333 43 39.3333Z" fill="#F24E1E"/>
<path d="M59.6667 31H68C72.6 31 76.3333 34.7333 76.3333 39.3333C76.3333 43.9333 72.6 47.6667 68 47.6667H59.6667V31Z" fill="#FF7262"/>
<path d="M76.3333 56C76.3333 60.6 72.6 64.3334 68 64.3334C63.4 64.3334 59.6667 60.6 59.6667 56C59.6667 51.4 63.4 47.6667 68 47.6667C72.6 47.6667 76.3333 51.4 76.3333 56Z" fill="#1ABCFE"/>
<defs>
<filter id="filter0_d_38_1341" x="4.03848" y="0" width="111.923" height="119" filterUnits="userSpaceOnUse" color-interpolation-filters="sRGB">
<feFlood flood-opacity="0" result="BackgroundImageFix"/>
<feColorMatrix in="SourceAlpha" type="matrix" values="0 0 0 0 0 0 0 0 0 0 0 0 0 0 0 0 0 0 127 0" result="hardAlpha"/>
<feOffset dy="4"/>
<feGaussianBlur stdDeviation="2"/>
<feComposite in2="hardAlpha" operator="out"/>
<feColorMatrix type="matrix" values="0 0 0 0 0 0 0 0 0 0 0 0 0 0 0 0 0 0 0.25 0"/>
<feBlend mode="normal" in2="BackgroundImageFix" result="effect1_dropShadow_38_1341"/>
<feBlend mode="normal" in="SourceGraphic" in2="effect1_dropShadow_38_1341" result="shape"/>
</filter>
</defs>
</svg>
