<svg width="120" height="119" viewBox="0 0 120 119" fill="none" xmlns="http://www.w3.org/2000/svg">
<g filter="url(#filter0_d_37_1207)">
<path d="M60 0L111.962 27.75V83.25L60 111L8.03848 83.25V27.75L60 0Z" fill="#F7F7F7"/>
<path d="M10.0385 28.9492L60 2.26734L109.962 28.9492V82.0508L60 108.733L10.0385 82.0508V28.9492Z" stroke="white" stroke-width="4"/>
</g>
<path d="M36.4824 52.4724L50.9432 37.9865L55.1714 42.2397C54.5709 44.3663 55.5467 46.693 57.4981 47.8189V61.6793C55.997 62.5299 54.9962 64.1561 54.9962 66.0075C54.9962 67.3346 55.5234 68.6073 56.4618 69.5457C57.4002 70.4841 58.6729 71.0113 60 71.0113C61.3271 71.0113 62.5998 70.4841 63.5382 69.5457C64.4766 68.6073 65.0038 67.3346 65.0038 66.0075C65.0038 64.1561 64.003 62.5299 62.5019 61.6793V49.5201L67.6808 54.7491C67.5056 55.1243 67.5056 55.5497 67.5056 56C67.5056 57.3271 68.0328 58.5998 68.9712 59.5382C69.9096 60.4766 71.1823 61.0038 72.5094 61.0038C73.8365 61.0038 75.1092 60.4766 76.0476 59.5382C76.986 58.5998 77.5131 57.3271 77.5131 56C77.5131 54.6729 76.986 53.4002 76.0476 52.4618C75.1092 51.5234 73.8365 50.9962 72.5094 50.9962C72.059 50.9962 71.6337 50.9962 71.2584 51.1714L64.8286 44.7416C65.1393 43.5828 65.0188 42.3506 64.4897 41.2739C63.9605 40.1972 63.0586 39.3492 61.9515 38.8872C60.8757 38.4869 59.7498 38.3868 58.7491 38.662L54.4959 34.4338L56.4724 32.4824C58.4238 30.5059 61.5762 30.5059 63.5276 32.4824L83.5176 52.4724C85.4941 54.4238 85.4941 57.5762 83.5176 59.5276L63.5276 79.5176C61.5762 81.4941 58.4238 81.4941 56.4724 79.5176L36.4824 59.5276C34.5059 57.5762 34.5059 54.4238 36.4824 52.4724Z" fill="#F05032"/>
<defs>
<filter id="filter0_d_37_1207" x="4.03845" y="0" width="111.923" height="119" filterUnits="userSpaceOnUse" color-interpolation-filters="sRGB">
<feFlood flood-opacity="0" result="BackgroundImageFix"/>
<feColorMatrix in="SourceAlpha" type="matrix" values="0 0 0 0 0 0 0 0 0 0 0 0 0 0 0 0 0 0 127 0" result="hardAlpha"/>
<feOffset dy="4"/>
<feGaussianBlur stdDeviation="2"/>
<feComposite in2="hardAlpha" operator="out"/>
<feColorMatrix type="matrix" values="0 0 0 0 0 0 0 0 0 0 0 0 0 0 0 0 0 0 0.25 0"/>
<feBlend mode="normal" in2="BackgroundImageFix" result="effect1_dropShadow_37_1207"/>
<feBlend mode="normal" in="SourceGraphic" in2="effect1_dropShadow_37_1207" result="shape"/>
</filter>
</defs>
</svg>
