<svg width="120" height="119" viewBox="0 0 120 119" fill="none" xmlns="http://www.w3.org/2000/svg">
<g filter="url(#filter0_d_37_694)">
<path d="M60 0L111.962 27.75V83.25L60 111L8.03848 83.25V27.75L60 0Z" fill="#161B22"/>
<path d="M10.0385 28.9492L60 2.26734L109.962 28.9492V82.0508L60 108.733L10.0385 82.0508V28.9492Z" stroke="white" stroke-width="4"/>
</g>
<path d="M59.6207 31C56.2561 31 52.9245 31.6627 49.8161 32.9503C46.7076 34.2378 43.8832 36.125 41.5041 38.5041C36.6993 43.3089 34 49.8256 34 56.6207C34 67.945 41.3531 77.5528 51.5245 80.9603C52.8056 81.1653 53.2155 80.371 53.2155 79.6793V75.3494C46.1186 76.8866 44.607 71.9162 44.607 71.9162C43.4284 68.9442 41.7631 68.15 41.7631 68.15C39.4316 66.5615 41.9424 66.6127 41.9424 66.6127C44.5045 66.7921 45.8624 69.2517 45.8624 69.2517C48.0914 73.146 51.8576 71.9931 53.318 71.3782C53.5486 69.7128 54.2147 68.5855 54.9321 67.945C49.2443 67.3045 43.2747 65.1011 43.2747 55.3396C43.2747 52.4957 44.2483 50.2155 45.9136 48.3964C45.6574 47.7559 44.7607 45.0914 46.1698 41.6326C46.1698 41.6326 48.322 40.9408 53.2155 44.2459C55.2395 43.6822 57.4429 43.4004 59.6207 43.4004C61.7984 43.4004 64.0018 43.6822 66.0258 44.2459C70.9194 40.9408 73.0715 41.6326 73.0715 41.6326C74.4807 45.0914 73.5839 47.7559 73.3277 48.3964C74.9931 50.2155 75.9667 52.4957 75.9667 55.3396C75.9667 65.1267 69.9714 67.2789 64.258 67.9194C65.1804 68.7136 66.0258 70.2765 66.0258 72.6592V79.6793C66.0258 80.371 66.4358 81.1909 67.7424 80.9603C77.9138 77.5271 85.2413 67.945 85.2413 56.6207C85.2413 53.2561 84.5787 49.9245 83.2911 46.8161C82.0035 43.7076 80.1163 40.8832 77.7372 38.5041C75.3581 36.125 72.5337 34.2378 69.4253 32.9503C66.3168 31.6627 62.9852 31 59.6207 31Z" fill="#F0F6FC"/>
<defs>
<filter id="filter0_d_37_694" x="4.03848" y="0" width="111.923" height="119" filterUnits="userSpaceOnUse" color-interpolation-filters="sRGB">
<feFlood flood-opacity="0" result="BackgroundImageFix"/>
<feColorMatrix in="SourceAlpha" type="matrix" values="0 0 0 0 0 0 0 0 0 0 0 0 0 0 0 0 0 0 127 0" result="hardAlpha"/>
<feOffset dy="4"/>
<feGaussianBlur stdDeviation="2"/>
<feComposite in2="hardAlpha" operator="out"/>
<feColorMatrix type="matrix" values="0 0 0 0 0 0 0 0 0 0 0 0 0 0 0 0 0 0 0.25 0"/>
<feBlend mode="normal" in2="BackgroundImageFix" result="effect1_dropShadow_37_694"/>
<feBlend mode="normal" in="SourceGraphic" in2="effect1_dropShadow_37_694" result="shape"/>
</filter>
</defs>
</svg>
