<svg width="120" height="119" viewBox="0 0 120 119" fill="none" xmlns="http://www.w3.org/2000/svg">
<g filter="url(#filter0_d_37_1209)">
<path d="M60 0L111.962 27.75V83.25L60 111L8.03848 83.25V27.75L60 0Z" fill="#0090E4"/>
<path d="M10.0385 28.9492L60 2.26734L109.962 28.9492V82.0508L60 108.733L10.0385 82.0508V28.9492Z" stroke="white" stroke-width="4"/>
</g>
<path d="M77.3039 31.0006C70.7153 31.0449 64.4097 33.6848 59.7546 38.3478C55.1497 42.9635 52.5272 49.1936 52.4448 55.7131C52.3623 62.2325 54.8265 68.527 59.3132 73.2577L67.8387 64.7322C65.6169 62.2608 64.4278 59.0313 64.5164 55.7092C64.605 52.3872 65.9645 49.2256 68.3149 46.8762C70.6652 44.5267 73.8273 43.1684 77.1494 43.0811C80.4715 42.9938 83.7006 44.1842 86.1711 46.4069L94.7037 37.8672C90.0094 33.4149 83.7737 30.9563 77.3039 31.0006ZM42.1662 31.0362C35.696 30.9929 29.4602 33.4563 24.7665 37.9099L33.2777 46.4212C35.7462 44.1866 38.9796 42.9872 42.3082 43.0714C45.6369 43.1555 48.8056 44.5168 51.158 46.8732L57.3305 36.2903L56.9745 36.0055C52.6947 32.8122 47.506 31.071 42.1662 31.0362ZM95.5972 38.7678L87.0895 47.2755C89.3269 49.7443 90.5291 52.979 90.4473 56.3098C90.3654 59.6406 89.0058 62.8123 86.6498 65.1682C84.2939 67.5242 81.1222 68.8838 77.7914 68.9657C74.4606 69.0475 71.2259 67.8453 68.7571 65.6079L60.1925 74.1761C64.9337 78.6423 71.2284 81.0857 77.7412 80.9882C84.254 80.8906 90.4726 78.2596 95.0779 73.6534C99.6833 69.0472 102.313 62.828 102.409 56.3152C102.505 49.8023 100.064 43.5082 95.5972 38.7678ZM23.8765 38.8034C19.4626 43.4541 17.0013 49.6209 17 56.0327C16.9987 62.4445 19.4574 68.6123 23.8694 73.2648L32.402 64.7322C30.2391 62.3489 29.0398 59.2464 29.0371 56.028C29.0345 52.8095 30.2288 49.7051 32.3878 47.3182L23.8765 38.8034ZM51.158 65.227C48.8035 67.5767 45.6346 68.9294 42.3091 69.0043C38.9835 69.0792 35.7569 67.8706 33.299 65.6293L24.7665 74.1583C29.0331 78.1931 34.5829 80.5988 40.4445 80.9541C46.306 81.3095 52.1058 79.5918 56.8286 76.1019L57.3163 75.7032L51.158 65.227Z" fill="#F9AB00"/>
<defs>
<filter id="filter0_d_37_1209" x="4.03845" y="0" width="111.923" height="119" filterUnits="userSpaceOnUse" color-interpolation-filters="sRGB">
<feFlood flood-opacity="0" result="BackgroundImageFix"/>
<feColorMatrix in="SourceAlpha" type="matrix" values="0 0 0 0 0 0 0 0 0 0 0 0 0 0 0 0 0 0 127 0" result="hardAlpha"/>
<feOffset dy="4"/>
<feGaussianBlur stdDeviation="2"/>
<feComposite in2="hardAlpha" operator="out"/>
<feColorMatrix type="matrix" values="0 0 0 0 0 0 0 0 0 0 0 0 0 0 0 0 0 0 0.25 0"/>
<feBlend mode="normal" in2="BackgroundImageFix" result="effect1_dropShadow_37_1209"/>
<feBlend mode="normal" in="SourceGraphic" in2="effect1_dropShadow_37_1209" result="shape"/>
</filter>
</defs>
</svg>
