<svg width="120" height="119" viewBox="0 0 120 119" fill="none" xmlns="http://www.w3.org/2000/svg">
<g filter="url(#filter0_d_38_1343)">
<path d="M60 0L111.962 27.75V83.25L60 111L8.03848 83.25V27.75L60 0Z" fill="#1A2832"/>
<path d="M10.0385 28.9492L60 2.26734L109.962 28.9492V82.0508L60 108.733L10.0385 82.0508V28.9492Z" stroke="white" stroke-width="4"/>
</g>
<path d="M72.0036 65.0431L72.0146 76.1026L62.2005 81V69.9453L72.0036 65.0431ZM83.7816 59.1324V70.2304L75.4112 74.4078L75.4051 63.3604L83.7816 59.1324ZM71.9888 50.2402L71.9998 61.1836L62.2003 66.0531V55.106L71.9888 50.2402ZM83.7816 44.3775V55.2522L75.4028 59.5117L75.3954 48.5464L83.7816 44.3775ZM60.7084 43.091L69.4677 47.5124L60.3798 52.0764L51.7859 47.76L60.7084 43.091ZM48.5246 36.9411L56.8791 41.1582L47.9361 45.8259L39.3557 41.5169L48.5246 36.9411ZM72.4069 37.005L81.4056 41.5169L73.3577 45.5591L64.5803 41.1317L72.4071 37.005H72.4069ZM60.4334 31L68.5343 35.0614L60.7667 39.2085L52.4191 34.9984L60.4332 31H60.4334Z" fill="#4DABCF"/>
<path d="M58.7359 55.106L52.1254 51.7827V66.1472C52.1254 66.1472 44.0415 48.9464 43.2925 47.4013C43.196 47.202 42.7985 46.9832 42.6969 46.9302C41.2474 46.1691 37 44.0175 37 44.0175V69.3956L42.8758 72.5366V59.2714C42.8758 59.2714 50.874 74.6408 50.955 74.8087C51.0359 74.9769 51.8394 76.5967 52.697 77.1656C53.8397 77.9219 58.7372 80.867 58.7372 80.867L58.7359 55.106Z" fill="#4D77CF"/>
<defs>
<filter id="filter0_d_38_1343" x="4.03848" y="0" width="111.923" height="119" filterUnits="userSpaceOnUse" color-interpolation-filters="sRGB">
<feFlood flood-opacity="0" result="BackgroundImageFix"/>
<feColorMatrix in="SourceAlpha" type="matrix" values="0 0 0 0 0 0 0 0 0 0 0 0 0 0 0 0 0 0 127 0" result="hardAlpha"/>
<feOffset dy="4"/>
<feGaussianBlur stdDeviation="2"/>
<feComposite in2="hardAlpha" operator="out"/>
<feColorMatrix type="matrix" values="0 0 0 0 0 0 0 0 0 0 0 0 0 0 0 0 0 0 0.25 0"/>
<feBlend mode="normal" in2="BackgroundImageFix" result="effect1_dropShadow_38_1343"/>
<feBlend mode="normal" in="SourceGraphic" in2="effect1_dropShadow_38_1343" result="shape"/>
</filter>
</defs>
</svg>
