<svg width="120" height="119" viewBox="0 0 120 119" fill="none" xmlns="http://www.w3.org/2000/svg">
<g filter="url(#filter0_d_38_1335)">
<path d="M60 0L111.962 27.75V83.25L60 111L8.03848 83.25V27.75L60 0Z" fill="#FBFCFC"/>
<path d="M10.0385 28.9492L60 2.26734L109.962 28.9492V82.0508L60 108.733L10.0385 82.0508V28.9492Z" stroke="#FBFCFC" stroke-width="4"/>
</g>
<path d="M80.1172 31H39.8828C37.1861 31 35 33.1861 35 35.8828V76.1172C35 78.8139 37.1861 81 39.8828 81H80.1172C82.8139 81 85 78.8139 85 76.1172V35.8828C85 33.1861 82.8139 31 80.1172 31Z" fill="url(#paint0_linear_38_1335)"/>
<path d="M76.1562 37.5H65.5938C64.2993 37.5 63.25 38.5493 63.25 39.8438V57.0312C63.25 58.3257 64.2993 59.375 65.5938 59.375H76.1562C77.4507 59.375 78.5 58.3257 78.5 57.0312V39.8438C78.5 38.5493 77.4507 37.5 76.1562 37.5Z" fill="#FBFCFC"/>
<path d="M54.4062 37.5H43.8438C42.5493 37.5 41.5 38.5493 41.5 39.8438V69.5312C41.5 70.8257 42.5493 71.875 43.8438 71.875H54.4062C55.7007 71.875 56.75 70.8257 56.75 69.5312V39.8438C56.75 38.5493 55.7007 37.5 54.4062 37.5Z" fill="#FBFCFC"/>
<defs>
<filter id="filter0_d_38_1335" x="4.03845" y="0" width="111.923" height="119" filterUnits="userSpaceOnUse" color-interpolation-filters="sRGB">
<feFlood flood-opacity="0" result="BackgroundImageFix"/>
<feColorMatrix in="SourceAlpha" type="matrix" values="0 0 0 0 0 0 0 0 0 0 0 0 0 0 0 0 0 0 127 0" result="hardAlpha"/>
<feOffset dy="4"/>
<feGaussianBlur stdDeviation="2"/>
<feComposite in2="hardAlpha" operator="out"/>
<feColorMatrix type="matrix" values="0 0 0 0 0 0 0 0 0 0 0 0 0 0 0 0 0 0 0.25 0"/>
<feBlend mode="normal" in2="BackgroundImageFix" result="effect1_dropShadow_38_1335"/>
<feBlend mode="normal" in="SourceGraphic" in2="effect1_dropShadow_38_1335" result="shape"/>
</filter>
<linearGradient id="paint0_linear_38_1335" x1="60" y1="31" x2="60" y2="81" gradientUnits="userSpaceOnUse">
<stop stop-color="#0091E6"/>
<stop offset="1" stop-color="#0079BF"/>
</linearGradient>
</defs>
</svg>
