<svg width="320" height="857" viewBox="0 0 320 857" fill="none" xmlns="http://www.w3.org/2000/svg">
<path d="M308.56 77.5L371.56 77.5L403.06 132.06L371.56 186.619L308.56 186.619L277.06 132.06L308.56 77.5Z" fill="#D7EDFE" fill-opacity="0.3"/>
<path d="M36.5596 31.5L99.5596 31.5L131.06 86.0596L99.5596 140.619L36.5596 140.619L5.0596 86.0596L36.5596 31.5Z" fill="#D7EDFE" fill-opacity="0.3"/>
<path d="M54.3013 745L104.301 745L129.301 788.301L104.301 831.603L54.3013 831.603L29.3013 788.301L54.3013 745Z" fill="#D7EDFE" fill-opacity="0.3"/>
<path d="M88.6506 383.5L113.651 383.5L126.151 405.151L113.651 426.801L88.6506 426.801L76.1506 405.151L88.6506 383.5Z" fill="#D7EDFE" fill-opacity="0.3"/>
<path d="M164.56 479.5L227.56 479.5L259.06 534.06L227.56 588.619L164.56 588.619L133.06 534.06L164.56 479.5Z" fill="#D7EDFE" fill-opacity="0.3"/>
</svg>
