<svg width="120" height="119" viewBox="0 0 120 119" fill="none" xmlns="http://www.w3.org/2000/svg">
<g filter="url(#filter0_d_37_690)">
<path d="M60 0L111.962 27.75V83.25L60 111L8.03848 83.25V27.75L60 0Z" fill="#0090E4"/>
<path d="M10.0385 28.9492L60 2.26734L109.962 28.9492V82.0508L60 108.733L10.0385 82.0508V28.9492Z" stroke="white" stroke-width="4"/>
</g>
<path d="M42 71.3583L42.3028 70.9344L56.6214 43.7653L56.6516 43.4776L50.3398 31.6215C49.8107 30.6283 48.3219 30.8795 48.1485 31.9913L42 71.3583Z" fill="#FFC24A"/>
<path d="M42.1787 71.0351L42.4076 70.5886L56.5763 43.7041L50.2801 31.7997C49.7569 30.817 48.428 31.0675 48.2563 32.1676L42.1787 71.0351Z" fill="#FFA712"/>
<g filter="url(#filter1_i_37_690)">
<path d="M42.1787 71.0351L42.4076 70.5886L56.5763 43.7041L50.2801 31.7997C49.7569 30.817 48.428 31.0675 48.2563 32.1676L42.1787 71.0351Z" fill="#FFA900"/>
</g>
<path d="M61.253 52.4456L65.9527 47.6326L61.2516 38.6581C60.8054 37.8086 59.5594 37.806 59.1179 38.6581L56.6061 43.448V43.8558L61.2529 52.4456H61.253Z" fill="#F4BD62"/>
<path d="M61.1692 52.2452L65.7383 47.5659L61.1692 38.8657C60.7354 38.0398 59.6814 37.9533 59.2521 38.7815L56.7272 43.6458L56.6516 43.8945L61.1692 52.2452Z" fill="#FFA50E"/>
<g filter="url(#filter2_i_37_690)">
<path d="M61.1692 52.2452L65.7383 47.5659L61.1692 38.8657C60.7354 38.0398 59.6814 37.9533 59.2521 38.7815L56.7272 43.6458L56.6516 43.8945L61.1692 52.2452Z" fill="#FFA700"/>
</g>
<path d="M42 71.3583L42.1372 71.2202L42.6358 71.0177L60.9578 52.7637L61.19 52.1318L56.6194 43.422L42 71.3583Z" fill="#F6820C"/>
<path d="M61.84 80.5642L78.422 71.3164L73.6868 42.1534C73.5386 41.241 72.4192 40.8803 71.7661 41.5345L42 71.3583L58.4868 80.5635C58.9993 80.8496 59.5764 80.9999 60.1633 81C60.7503 81.0001 61.3274 80.8501 61.84 80.5642Z" fill="#FDE068"/>
<path d="M78.2734 71.2388L73.5741 42.2973C73.4272 41.3917 72.4963 41.0171 71.8481 41.6664L42.184 71.3016L58.4898 80.4155C58.9984 80.6994 59.5711 80.8485 60.1535 80.8487C60.736 80.8489 61.3088 80.7 61.8175 80.4163L78.2735 71.2387L78.2734 71.2388Z" fill="#FCCA3F"/>
<path d="M61.8399 80.2916C61.3274 80.5774 60.7502 80.7274 60.1633 80.7273C59.5764 80.7272 58.9993 80.5769 58.4869 80.2908L42.1328 71.218L42.0002 71.3582L58.4869 80.5634C58.9993 80.8495 59.5765 80.9997 60.1634 80.9999C60.7503 81 61.3275 80.85 61.8401 80.5641L78.422 71.3163L78.3814 71.0664L61.8401 80.2917L61.8399 80.2916Z" fill="#EEAB37"/>
<defs>
<filter id="filter0_d_37_690" x="4.03845" y="0" width="111.923" height="119" filterUnits="userSpaceOnUse" color-interpolation-filters="sRGB">
<feFlood flood-opacity="0" result="BackgroundImageFix"/>
<feColorMatrix in="SourceAlpha" type="matrix" values="0 0 0 0 0 0 0 0 0 0 0 0 0 0 0 0 0 0 127 0" result="hardAlpha"/>
<feOffset dy="4"/>
<feGaussianBlur stdDeviation="2"/>
<feComposite in2="hardAlpha" operator="out"/>
<feColorMatrix type="matrix" values="0 0 0 0 0 0 0 0 0 0 0 0 0 0 0 0 0 0 0.25 0"/>
<feBlend mode="normal" in2="BackgroundImageFix" result="effect1_dropShadow_37_690"/>
<feBlend mode="normal" in="SourceGraphic" in2="effect1_dropShadow_37_690" result="shape"/>
</filter>
<filter id="filter1_i_37_690" x="42.1787" y="31.1855" width="14.3976" height="39.8495" filterUnits="userSpaceOnUse" color-interpolation-filters="sRGB">
<feFlood flood-opacity="0" result="BackgroundImageFix"/>
<feBlend mode="normal" in="SourceGraphic" in2="BackgroundImageFix" result="shape"/>
<feColorMatrix in="SourceAlpha" type="matrix" values="0 0 0 0 0 0 0 0 0 0 0 0 0 0 0 0 0 0 127 0" result="hardAlpha"/>
<feOffset/>
<feGaussianBlur stdDeviation="17.5"/>
<feComposite in2="hardAlpha" operator="arithmetic" k2="-1" k3="1"/>
<feColorMatrix type="matrix" values="0 0 0 0 0 0 0 0 0 0 0 0 0 0 0 0 0 0 0.06 0"/>
<feBlend mode="normal" in2="shape" result="effect1_innerShadow_37_690"/>
</filter>
<filter id="filter2_i_37_690" x="56.6516" y="31.2017" width="10.0867" height="21.0436" filterUnits="userSpaceOnUse" color-interpolation-filters="sRGB">
<feFlood flood-opacity="0" result="BackgroundImageFix"/>
<feBlend mode="normal" in="SourceGraphic" in2="BackgroundImageFix" result="shape"/>
<feColorMatrix in="SourceAlpha" type="matrix" values="0 0 0 0 0 0 0 0 0 0 0 0 0 0 0 0 0 0 127 0" result="hardAlpha"/>
<feOffset dx="1" dy="-9"/>
<feGaussianBlur stdDeviation="3.5"/>
<feComposite in2="hardAlpha" operator="arithmetic" k2="-1" k3="1"/>
<feColorMatrix type="matrix" values="0 0 0 0 0 0 0 0 0 0 0 0 0 0 0 0 0 0 0.09 0"/>
<feBlend mode="normal" in2="shape" result="effect1_innerShadow_37_690"/>
</filter>
</defs>
</svg>
