<svg width="120" height="119" viewBox="0 0 120 119" fill="none" xmlns="http://www.w3.org/2000/svg">
<g filter="url(#filter0_d_37_631)">
<path d="M60 0L111.962 27.75V83.25L60 111L8.03848 83.25V27.75L60 0Z" fill="#1B1A1A"/>
<path d="M10.0385 28.9492L60 2.26734L109.962 28.9492V82.0508L60 108.733L10.0385 82.0508V28.9492Z" stroke="white" stroke-width="4"/>
</g>
<path d="M40.2275 68.0505L60.6692 32.6476L62.5043 33.7062L42.0644 69.1109L40.2275 68.0505Z" fill="#E10098"/>
<path d="M39.8062 65.2228H80.6894V67.3417H39.8062V65.2228Z" fill="#E10098"/>
<path d="M40.6166 66.4118L41.6752 64.5767L62.1239 76.3836L61.0636 78.2188L40.6166 66.4118ZM58.3805 35.6396L59.4409 33.8063L79.8897 45.6132L78.8293 47.4483L58.3805 35.6396Z" fill="#E10098"/>
<path d="M40.6219 45.6078L61.0689 33.8009L62.1293 35.636L41.6805 47.4429L40.6219 45.6078Z" fill="#E10098"/>
<path d="M58.011 33.708L59.8461 32.6476L80.286 68.0523L78.4526 69.1109L58.011 33.708ZM41.4288 44.201H43.5478V67.8148H41.4288V44.201Z" fill="#E10098"/>
<path d="M76.9639 44.201H79.0828V67.8149H76.9639V44.201Z" fill="#E10098"/>
<path d="M59.7802 75.7195L77.5637 65.4514L78.4902 67.0545L60.7049 77.3226L59.7802 75.7195Z" fill="#E10098"/>
<path d="M81.8909 68.504C81.4504 69.2694 80.7928 69.8869 80.0012 70.2784C79.2096 70.6698 78.3197 70.8177 77.444 70.7031C76.5684 70.5886 75.7464 70.2169 75.0821 69.635C74.4179 69.0531 73.9412 68.2872 73.7124 67.4342C73.4836 66.5813 73.513 65.6797 73.7968 64.8434C74.0807 64.0072 74.6063 63.274 75.307 62.7366C76.0078 62.1992 76.8522 61.8818 77.7334 61.8245C78.6147 61.7672 79.4931 61.9727 80.2575 62.4149C81.2805 63.0067 82.0271 63.9801 82.3333 65.1217C82.6395 66.2632 82.4804 67.4796 81.8909 68.504ZM46.3309 47.9749C45.8904 48.7403 45.2328 49.3578 44.4412 49.7493C43.6496 50.1407 42.7597 50.2886 41.884 50.174C41.0084 50.0595 40.1864 49.6877 39.5222 49.1059C38.8579 48.524 38.3812 47.7581 38.1524 46.9051C37.9236 46.0522 37.953 45.1506 38.2368 44.3143C38.5207 43.4781 39.0463 42.7449 39.747 42.2075C40.4478 41.6701 41.2922 41.3527 42.1734 41.2954C43.0547 41.2381 43.9331 41.4436 44.6975 41.8858C45.7206 42.4776 46.4671 43.451 46.7733 44.5926C47.0795 45.7341 46.9204 46.9505 46.3309 47.9749ZM38.6191 68.504C38.1769 67.7396 37.9715 66.8612 38.0287 65.9799C38.086 65.0987 38.4034 64.2543 38.9408 63.5535C39.4782 62.8528 40.2114 62.3272 41.0476 62.0433C41.8839 61.7595 42.7855 61.7301 43.6385 61.9589C44.4914 62.1877 45.2573 62.6644 45.8392 63.3287C46.4211 63.9929 46.7928 64.8149 46.9073 65.6905C47.0219 66.5662 46.874 67.4561 46.4826 68.2477C46.0911 69.0393 45.4736 69.6969 44.7082 70.1374C43.6838 70.7269 42.4674 70.886 41.3259 70.5798C40.1844 70.2736 39.2109 69.5271 38.6191 68.504ZM74.1791 47.9749C73.7369 47.2105 73.5314 46.3321 73.5887 45.4508C73.646 44.5696 73.9634 43.7252 74.5008 43.0244C75.0382 42.3237 75.7714 41.7981 76.6076 41.5142C77.4439 41.2304 78.3455 41.201 79.1984 41.4298C80.0514 41.6586 80.8173 42.1353 81.3992 42.7996C81.981 43.4638 82.3528 44.2858 82.4673 45.1614C82.5818 46.0371 82.434 46.927 82.0426 47.7186C81.6511 48.5102 81.0336 49.1678 80.2682 49.6083C79.2438 50.1978 78.0274 50.3569 76.8859 50.0507C75.7443 49.7445 74.7709 48.998 74.1791 47.9749ZM60.255 81C59.3723 81 58.5095 80.7382 57.7756 80.2479C57.0417 79.7575 56.4696 79.0605 56.1319 78.245C55.7941 77.4295 55.7057 76.5322 55.8779 75.6665C56.0501 74.8008 56.4751 74.0056 57.0993 73.3814C57.7234 72.7573 58.5186 72.3322 59.3843 72.16C60.25 71.9878 61.1474 72.0762 61.9628 72.414C62.7783 72.7518 63.4753 73.3238 63.9657 74.0577C64.4561 74.7916 64.7178 75.6545 64.7178 76.5371C64.7195 77.1237 64.6052 77.7047 64.3815 78.2469C64.1578 78.7891 63.8291 79.2818 63.4144 79.6965C62.9996 80.1113 62.507 80.4399 61.9648 80.6636C61.4226 80.8873 60.8415 81.0016 60.255 81ZM60.255 39.9257C59.3723 39.9257 58.5095 39.664 57.7756 39.1736C57.0417 38.6832 56.4696 37.9862 56.1319 37.1707C55.7941 36.3552 55.7057 35.4579 55.8779 34.5922C56.0501 33.7265 56.4751 32.9313 57.0993 32.3071C57.7234 31.683 58.5186 31.258 59.3843 31.0858C60.25 30.9136 61.1474 31.0019 61.9628 31.3397C62.7783 31.6775 63.4753 32.2495 63.9657 32.9834C64.4561 33.7173 64.7178 34.5802 64.7178 35.4629C64.7195 36.0494 64.6052 36.6305 64.3815 37.1727C64.1578 37.7149 63.8291 38.2075 63.4144 38.6222C62.9996 39.037 62.507 39.3657 61.9648 39.5893C61.4226 39.813 60.8415 39.9274 60.255 39.9257Z" fill="#E10098"/>
<defs>
<filter id="filter0_d_37_631" x="4.03845" y="0" width="111.923" height="119" filterUnits="userSpaceOnUse" color-interpolation-filters="sRGB">
<feFlood flood-opacity="0" result="BackgroundImageFix"/>
<feColorMatrix in="SourceAlpha" type="matrix" values="0 0 0 0 0 0 0 0 0 0 0 0 0 0 0 0 0 0 127 0" result="hardAlpha"/>
<feOffset dy="4"/>
<feGaussianBlur stdDeviation="2"/>
<feComposite in2="hardAlpha" operator="out"/>
<feColorMatrix type="matrix" values="0 0 0 0 0 0 0 0 0 0 0 0 0 0 0 0 0 0 0.25 0"/>
<feBlend mode="normal" in2="BackgroundImageFix" result="effect1_dropShadow_37_631"/>
<feBlend mode="normal" in="SourceGraphic" in2="effect1_dropShadow_37_631" result="shape"/>
</filter>
</defs>
</svg>
