<svg width="120" height="119" viewBox="0 0 120 119" fill="none" xmlns="http://www.w3.org/2000/svg">
<g filter="url(#filter0_d_38_1354)">
<path d="M60 0L111.962 27.75V83.25L60 111L8.03848 83.25V27.75L60 0Z" fill="url(#paint0_radial_38_1354)"/>
<path d="M10.0385 28.9492L60 2.26734L109.962 28.9492V82.0508L60 108.733L10.0385 82.0508V28.9492Z" stroke="white" stroke-width="4"/>
</g>
<path d="M84.542 42.3114C84.56 42.3779 84.5693 42.4466 84.5693 42.5157V53.248C84.5693 53.5284 84.4194 53.7874 84.176 53.9268L75.1685 59.1133V69.3925C75.1685 69.5301 75.1324 69.6652 75.0637 69.7844C74.9951 69.9036 74.8963 70.0026 74.7773 70.0716L55.9741 80.8959C55.9311 80.9202 55.8842 80.9357 55.8371 80.9526C55.8195 80.9583 55.803 80.9691 55.7844 80.974C55.653 81.0087 55.5148 81.0087 55.3833 80.974C55.3617 80.9683 55.3422 80.9564 55.3217 80.9486C55.2786 80.9329 55.2336 80.9192 55.1927 80.8959L36.3933 70.0714C36.2738 70.0028 36.1746 69.9039 36.1055 69.7847C36.0365 69.6656 36.0001 69.5303 36 69.3925V37.1956C36 37.1251 36.0099 37.0566 36.0273 36.9902C36.0332 36.9676 36.0469 36.9471 36.0548 36.9245C36.0694 36.8835 36.0833 36.8414 36.1047 36.8033C36.1193 36.7779 36.1408 36.7574 36.1584 36.7339C36.181 36.7025 36.2015 36.6703 36.2279 36.6428C36.2504 36.6204 36.2798 36.6037 36.3053 36.5842C36.3337 36.5606 36.359 36.5352 36.3912 36.5166H36.3922L45.7922 31.1046C45.9113 31.0361 46.0462 31 46.1835 31C46.3209 31 46.4558 31.0361 46.5748 31.1046L55.9749 36.5166H55.9768C56.0081 36.5364 56.0346 36.5606 56.0629 36.5832C56.0883 36.6028 56.1168 36.6204 56.1392 36.642C56.1667 36.6703 56.1862 36.7027 56.2096 36.7339C56.2263 36.7574 56.2488 36.7779 56.2625 36.8033C56.2849 36.8424 56.2976 36.8835 56.3134 36.9247C56.3211 36.9471 56.3348 36.9676 56.3407 36.9911C56.3587 37.0577 56.368 37.1266 56.3682 37.1956V57.3052L64.2011 52.7949V42.5147C64.2011 42.4464 64.211 42.3768 64.2286 42.3114C64.2355 42.2878 64.2482 42.2673 64.256 42.245C64.2717 42.2038 64.2854 42.1615 64.3068 42.1235C64.3214 42.0981 64.3428 42.0776 64.3597 42.0541C64.3831 42.0228 64.4026 41.9905 64.4299 41.963C64.4527 41.9406 64.481 41.9239 64.5064 41.9044C64.5358 41.8809 64.5612 41.8554 64.5925 41.8369H64.5935L73.9945 36.4248C74.1135 36.3562 74.2484 36.3201 74.3858 36.3201C74.5231 36.3201 74.6581 36.3562 74.7771 36.4248L84.1771 41.8369C84.2103 41.8564 84.2358 41.8809 84.2652 41.9033C84.2895 41.923 84.3179 41.9406 84.3405 41.9621C84.3678 41.9905 84.3874 42.0228 84.4107 42.0541C84.4285 42.0776 84.45 42.0981 84.4638 42.1235C84.4862 42.1615 84.4989 42.2038 84.5145 42.245C84.5234 42.2673 84.5361 42.2878 84.542 42.3114ZM83.0024 52.7951V43.8705L79.7127 45.7641L75.1683 48.3808V57.3054L83.0033 52.7951H83.0024ZM73.6023 68.9397V60.0088L69.132 62.5619L56.3672 69.8473V78.8618L73.6023 68.9393V68.9397ZM37.5669 38.5503V68.9397L54.8001 78.8611V69.8483L45.7973 64.753L45.7945 64.7511L45.7907 64.7492C45.7603 64.7316 45.7347 64.7062 45.7065 64.6847C45.6818 64.665 45.6535 64.6494 45.6321 64.6278L45.6302 64.625C45.6048 64.6005 45.5871 64.5701 45.5657 64.5428C45.546 64.5163 45.5226 64.4939 45.5069 64.4665L45.5059 64.4635C45.4883 64.4343 45.4775 64.399 45.4648 64.3658C45.452 64.3364 45.4355 64.3089 45.4276 64.2778V64.2768C45.4179 64.2396 45.416 64.2004 45.412 64.1622C45.4082 64.133 45.4002 64.1036 45.4002 64.0742V43.0608L40.8566 40.443L37.5669 38.5514V38.5503ZM46.1846 32.6872L38.3524 37.1956L46.1827 41.7039L54.0137 37.1945L46.1827 32.6872H46.1846ZM50.2576 60.8229L54.8011 58.2074V38.5503L51.5118 40.4441L46.967 43.0606V62.7175L50.2576 60.8229ZM74.3857 38.0075L66.5546 42.5157L74.3857 47.0241L82.2158 42.5147L74.3859 38.0075H74.3857ZM73.6021 48.3808L69.0577 45.7641L65.7682 43.8705V52.7951L70.3117 55.4108L73.6023 57.3054V48.3808H73.6021ZM55.5827 68.4927L67.0692 61.9351L72.811 58.6582L64.9856 54.1528L55.9758 59.3398L47.7642 64.0674L55.5827 68.4927Z" fill="white"/>
<defs>
<filter id="filter0_d_38_1354" x="4.03845" y="0" width="111.923" height="119" filterUnits="userSpaceOnUse" color-interpolation-filters="sRGB">
<feFlood flood-opacity="0" result="BackgroundImageFix"/>
<feColorMatrix in="SourceAlpha" type="matrix" values="0 0 0 0 0 0 0 0 0 0 0 0 0 0 0 0 0 0 127 0" result="hardAlpha"/>
<feOffset dy="4"/>
<feGaussianBlur stdDeviation="2"/>
<feComposite in2="hardAlpha" operator="out"/>
<feColorMatrix type="matrix" values="0 0 0 0 0 0 0 0 0 0 0 0 0 0 0 0 0 0 0.25 0"/>
<feBlend mode="normal" in2="BackgroundImageFix" result="effect1_dropShadow_38_1354"/>
<feBlend mode="normal" in="SourceGraphic" in2="effect1_dropShadow_38_1354" result="shape"/>
</filter>
<radialGradient id="paint0_radial_38_1354" cx="0" cy="0" r="1" gradientUnits="userSpaceOnUse" gradientTransform="translate(60 55.5) rotate(90) scale(55.5 60)">
<stop stop-color="#D22F3A"/>
<stop offset="1" stop-color="#EA5D00"/>
</radialGradient>
</defs>
</svg>
