<svg width="120" height="119" viewBox="0 0 120 119" fill="none" xmlns="http://www.w3.org/2000/svg">
<g filter="url(#filter0_d_38_1339)">
<path d="M60 0L111.962 27.75V83.25L60 111L8.03848 83.25V27.75L60 0Z" fill="#356080"/>
<path d="M10.0385 28.9492L60 2.26734L109.962 28.9492V82.0508L60 108.733L10.0385 82.0508V28.9492Z" stroke="white" stroke-width="4"/>
</g>
<path d="M64.0161 36.5728C61.9177 34.0831 60.1107 31.5543 59.7415 31.0292C59.7327 31.0199 59.7222 31.0126 59.7105 31.0076C59.6988 31.0026 59.6862 31 59.6735 31C59.6607 31 59.6481 31.0026 59.6364 31.0076C59.6248 31.0126 59.6142 31.0199 59.6054 31.0292C59.2363 31.5544 57.4292 34.0831 55.3307 36.5728C37.3187 59.5449 58.1676 75.0478 58.1676 75.0478L58.3424 75.1645C58.4978 77.557 58.8865 81 58.8865 81H60.441C60.441 81 60.8295 77.5765 60.985 75.1646L61.1599 75.0284C61.1793 75.0479 82.0282 59.545 64.0161 36.5728ZM59.6637 74.6976C59.6637 74.6976 58.731 73.9002 58.4784 73.4918V73.4527L59.6054 48.4382C59.6054 48.3604 59.7221 48.3604 59.7221 48.4382L60.849 73.4527V73.4918C60.5964 73.9002 59.6637 74.6977 59.6637 74.6977V74.6976Z" fill="#01EC64"/>
<defs>
<filter id="filter0_d_38_1339" x="4.03845" y="0" width="111.923" height="119" filterUnits="userSpaceOnUse" color-interpolation-filters="sRGB">
<feFlood flood-opacity="0" result="BackgroundImageFix"/>
<feColorMatrix in="SourceAlpha" type="matrix" values="0 0 0 0 0 0 0 0 0 0 0 0 0 0 0 0 0 0 127 0" result="hardAlpha"/>
<feOffset dy="4"/>
<feGaussianBlur stdDeviation="2"/>
<feComposite in2="hardAlpha" operator="out"/>
<feColorMatrix type="matrix" values="0 0 0 0 0 0 0 0 0 0 0 0 0 0 0 0 0 0 0.25 0"/>
<feBlend mode="normal" in2="BackgroundImageFix" result="effect1_dropShadow_38_1339"/>
<feBlend mode="normal" in="SourceGraphic" in2="effect1_dropShadow_38_1339" result="shape"/>
</filter>
</defs>
</svg>
