<svg width="120" height="119" viewBox="0 0 120 119" fill="none" xmlns="http://www.w3.org/2000/svg">
<g filter="url(#filter0_d_38_1340)">
<path d="M60 0L111.962 27.75V83.25L60 111L8.03848 83.25V27.75L60 0Z" fill="#4479A1"/>
<path d="M10.0385 28.9492L60 2.26734L109.962 28.9492V82.0508L60 108.733L10.0385 82.0508V28.9492Z" stroke="white" stroke-width="4"/>
</g>
<path d="M44.8434 64.0279L47.075 71.2685C47.5763 72.9124 47.7854 74.0601 47.7017 74.7142C48.9221 71.4455 49.7749 67.8833 50.2601 64.0279H52.9433C51.7896 70.3046 50.2678 74.8658 48.3789 77.7111C46.9072 79.9038 45.2949 81 43.5392 81C43.0711 81 42.494 80.8586 41.8092 80.5778V79.0648C42.1438 79.1138 42.5363 79.1401 42.9878 79.1401C43.8068 79.1401 44.467 78.913 44.9692 78.46C45.5706 77.908 45.8716 77.2876 45.8716 76.5999C45.8716 76.1304 45.6368 75.1668 45.1694 73.7091L42.0602 64.0279H44.8433H44.8434ZM27.7647 59.5776L31.852 72.0484H31.8772L35.9896 59.5776H39.3495C40.0852 65.7622 40.5198 71.4209 40.6532 76.5502H37.8204C37.7208 71.7554 37.4447 67.2467 36.9932 63.0233H36.9686L32.6549 76.5502H30.4977L26.2102 63.0233H26.1849C25.8669 67.0794 25.6666 71.588 25.5832 76.5502H23C23.1669 70.5153 23.5847 64.8583 24.2533 59.5776H27.7648H27.7647Z" fill="white"/>
<path d="M73.5533 59.3258C77.9499 59.3258 80.1483 62.1347 80.1483 67.7498C80.1483 70.8011 79.4872 73.1059 78.1662 74.6629C77.9281 74.9475 77.665 75.1933 77.3879 75.421L80.4993 76.9594L80.4963 76.9593L79.3915 78.867L75.3397 76.5028C74.668 76.7017 73.929 76.8011 73.1238 76.8011C70.9649 76.8011 69.3524 76.1719 68.2862 74.9152C67.116 73.5249 66.5311 71.3363 66.5311 68.353C66.5311 65.3189 67.1911 63.0228 68.5126 61.4638C69.7161 60.0377 71.3966 59.3256 73.5533 59.3256V59.3258ZM60.0895 59.3504C61.6609 59.3504 63.0898 59.7709 64.3768 60.6089L63.7231 62.0656C62.6218 61.5974 61.536 61.3624 60.4653 61.3624C59.5965 61.3624 58.927 61.5715 58.4604 61.9923C57.9911 62.4093 57.7008 62.946 57.7008 63.6002C57.7008 64.6056 58.417 65.4774 59.7395 66.214C60.1727 66.4508 60.6044 66.6903 61.0346 66.9326L61.1333 66.9881L61.1828 67.0159L61.2816 67.0714L61.3309 67.0993L61.4296 67.1549C62.4306 67.7192 63.3726 68.2579 63.3726 68.2579C64.6949 69.1965 65.354 70.1973 65.354 71.8456C65.354 73.285 64.8265 74.4666 63.775 75.3912C62.7228 76.3116 61.3091 76.7731 59.5388 76.7731C57.8831 76.7731 56.2784 76.2419 54.7241 75.1884L55.4512 73.7304C56.7889 74.4009 57.9993 74.7358 59.0862 74.7358C60.1056 74.7358 60.9036 74.5082 61.4808 74.0587C62.0569 73.606 62.4021 72.9745 62.4021 72.1738C62.4021 71.1661 61.7011 70.3046 60.4151 69.5819C60.0126 69.3595 59.6112 69.135 59.2111 68.9083L59.1126 68.8525C58.9316 68.7502 58.7493 68.6467 58.5708 68.5453L58.474 68.4902C57.6056 67.9963 56.8548 67.5648 56.8548 67.5648C55.5693 66.6244 54.9246 65.6155 54.9246 63.953C54.9246 62.5781 55.4053 61.4668 56.3654 60.6214C57.3277 59.7741 58.5692 59.3504 60.0895 59.3504ZM85.3154 59.5776V74.4623H90.6559V76.5501H82.6069V59.5776H85.3154ZM93.6234 74.4687V74.8215H93.0363V76.5483H92.5874V74.8215H91.9774V74.4687H93.6236H93.6234ZM94.7076 74.4687L95.2714 75.8863L95.7893 74.4687H96.4256V76.5483H96.0025V74.9657L95.4131 76.5483H95.108L94.5176 74.9657H94.4949V76.5483H94.0947V74.4687H94.7078H94.7076ZM73.2768 61.413C70.6859 61.413 69.3897 63.5513 69.3897 67.8251C69.3897 70.2732 69.7332 72.0483 70.4188 73.1548C71.0539 74.1788 72.0484 74.6897 73.4027 74.6897C75.9936 74.6897 77.2897 72.5348 77.2897 68.2269C77.2897 65.8131 76.9462 64.0531 76.2614 62.9461C75.6256 61.9244 74.6315 61.413 73.2769 61.413H73.2768Z" fill="#F29111"/>
<path d="M66.4858 32.0517C67.3453 29.9397 70.3506 31.5391 71.5168 32.2768C71.8026 32.4614 72.1305 32.8513 72.4582 32.9955C72.9695 33.0156 73.4803 33.0556 73.9924 33.0769C74.953 33.3027 75.8528 33.4871 76.6098 33.9182C80.1274 35.9898 82.4173 38.1009 84.5248 41.5879C84.9751 42.3264 85.2001 43.1257 85.568 43.9249C86.0785 45.1163 86.6522 46.3669 87.2448 47.4934C87.5101 48.0275 87.7153 48.6213 88.0838 49.0724C88.2276 49.2786 88.6362 49.3394 88.8804 49.4626C89.5556 49.8121 90.3737 50.0774 91.0087 50.4876C92.1946 51.227 93.3412 52.1082 94.3835 53.0102C94.772 53.3585 95.0368 53.8514 95.4069 54.2197V54.4055C95.0784 54.5063 94.751 54.6096 94.4233 54.6924C93.7075 54.8762 93.0734 54.8346 92.379 55.0186C91.9499 55.1431 91.4171 55.3073 90.9671 55.349L91.0087 55.3909C91.2734 56.1474 92.7059 56.7627 93.361 57.2152C94.1567 57.7894 94.8939 58.4858 95.4874 59.2856C95.6923 59.4897 95.8973 59.6754 96.1012 59.8789C96.2438 60.0852 96.2839 60.3519 96.4282 60.5358V60.598C96.2684 60.5417 96.1535 60.4341 96.0447 60.3217L95.9797 60.2538C95.9148 60.1864 95.8492 60.1202 95.7745 60.0655C95.323 59.7572 94.8747 59.3883 94.4233 59.1016C93.6471 58.6091 92.7469 58.3233 91.9499 57.829C91.4993 57.542 91.0698 57.2152 90.6403 56.8867C90.2509 56.5989 89.8221 56.0462 89.5774 55.636C89.4333 55.4094 89.4135 55.1431 89.2489 54.9792C89.2783 54.7054 89.5291 54.6241 89.7822 54.5573L89.8405 54.5419C89.9278 54.5193 90.0133 54.4966 90.0878 54.4666C91.1511 54.0152 92.4188 53.8514 94.0557 53.8924C93.994 53.4814 92.9712 52.9692 92.6446 52.7231C91.9892 52.2507 91.2952 51.7578 90.6 51.3279C90.2315 51.1027 89.5966 50.9383 89.1885 50.7543C88.6362 50.5286 87.4087 50.303 87.1027 49.8731C86.5828 49.1953 86.2093 48.3869 85.8468 47.5703L85.7481 47.3474C85.7152 47.2731 85.6822 47.1989 85.6492 47.1247C85.2206 46.1413 84.6883 45.116 84.2588 44.1091C84.0342 43.6179 83.9311 43.1868 83.6851 42.7157C82.1926 39.8247 79.9836 37.4043 77.3053 35.7021C76.4252 35.1483 75.4438 34.6357 74.3604 34.2874C73.7465 34.1019 73.0096 34.2045 72.3555 34.0622H71.925C71.5576 33.9586 71.2508 33.5691 70.9641 33.3638C70.3309 32.9338 69.6968 32.6451 68.9395 32.3384C68.6742 32.2153 67.9166 31.9288 67.6521 32.1544C67.4883 32.1955 67.4053 32.2573 67.365 32.4217C67.2021 32.6669 67.3453 33.0364 67.4467 33.2625C67.7539 33.9179 68.183 34.3074 68.5725 34.8613C68.919 35.3525 69.3494 35.9064 69.5951 36.4404C70.1251 37.5885 70.3719 38.8604 70.8631 40.0083C71.0453 40.44 71.3334 40.9312 71.5986 41.3205C71.8233 41.6296 72.2319 41.853 72.3555 42.2443C72.6019 42.6544 71.9866 44.0078 71.8442 44.4376C71.3115 46.1195 71.4147 48.4573 72.0282 49.9151L72.0609 49.9919L72.0936 50.0698C72.3177 50.6038 72.5574 51.1787 73.153 51.328C73.1941 51.2873 73.153 51.3086 73.2344 51.2873C73.3785 50.1589 73.4191 49.0722 73.808 48.1894C74.0327 47.6374 74.4815 47.2471 74.7891 46.7965C74.9942 46.9193 74.9942 47.2894 75.1164 47.5344C75.3826 48.1697 75.6684 48.8663 75.9965 49.5035C76.67 50.8157 77.4278 52.0879 78.2864 53.2358C78.574 53.6459 78.982 54.0972 79.35 54.4665C79.5139 54.6095 79.6975 54.6921 79.8207 54.8761H79.8608V54.938C79.2473 54.7119 78.8583 54.0771 78.369 53.7065C77.4477 53.01 76.3444 51.9639 75.7094 50.9601C75.4438 50.3839 75.1567 49.8316 74.8704 49.2582V49.2168C74.7481 49.3806 74.7891 49.5432 74.7279 49.791C74.4623 50.8157 74.6668 51.9847 73.7465 52.3533C72.7033 52.7849 71.9251 51.6567 71.5986 51.144C70.5551 49.4422 70.2693 46.5714 71.0051 44.2539C71.1686 43.7409 71.1908 43.1257 71.4762 42.7161C71.4146 42.3458 71.1292 42.2446 70.9641 42.0177C70.6779 41.6299 70.4328 41.1781 70.2086 40.7475C69.7781 39.9062 69.4717 38.901 69.1449 37.9988C69.0012 37.6303 68.96 37.2605 68.8168 36.9117C68.5724 36.3793 68.1219 35.8453 67.7744 35.3743C67.3039 34.6974 65.9334 33.3854 66.4858 32.0517ZM73.1936 36.0694C73.2483 36.1242 73.3142 36.1721 73.3825 36.2193L73.4648 36.2758C73.5745 36.3518 73.6808 36.4318 73.7459 36.5408C73.8492 36.6851 73.8684 36.8275 73.992 36.9721C73.992 37.465 73.8492 37.7927 73.5608 37.9969C73.5608 37.9969 73.5411 38.0184 73.5209 38.0385C73.3574 37.7099 73.2141 37.3831 73.0495 37.0548C72.8467 36.7683 72.56 36.541 72.3948 36.2136H72.3551V36.1724C72.6019 36.1114 72.8467 36.0694 73.1936 36.0694Z" fill="white"/>
<defs>
<filter id="filter0_d_38_1340" x="4.03845" y="0" width="111.923" height="119" filterUnits="userSpaceOnUse" color-interpolation-filters="sRGB">
<feFlood flood-opacity="0" result="BackgroundImageFix"/>
<feColorMatrix in="SourceAlpha" type="matrix" values="0 0 0 0 0 0 0 0 0 0 0 0 0 0 0 0 0 0 127 0" result="hardAlpha"/>
<feOffset dy="4"/>
<feGaussianBlur stdDeviation="2"/>
<feComposite in2="hardAlpha" operator="out"/>
<feColorMatrix type="matrix" values="0 0 0 0 0 0 0 0 0 0 0 0 0 0 0 0 0 0 0.25 0"/>
<feBlend mode="normal" in2="BackgroundImageFix" result="effect1_dropShadow_38_1340"/>
<feBlend mode="normal" in="SourceGraphic" in2="effect1_dropShadow_38_1340" result="shape"/>
</filter>
</defs>
</svg>
