<svg width="120" height="119" viewBox="0 0 120 119" fill="none" xmlns="http://www.w3.org/2000/svg">
<g filter="url(#filter0_d_38_1336)">
<path d="M60 0L111.962 27.75V83.25L60 111L8.03848 83.25V27.75L60 0Z" fill="#E3EAFE"/>
<path d="M10.0385 28.9492L60 2.26734L109.962 28.9492V82.0508L60 108.733L10.0385 82.0508V28.9492Z" stroke="white" stroke-width="4"/>
</g>
<mask id="mask0_38_1336" style="mask-type:alpha" maskUnits="userSpaceOnUse" x="35" y="31" width="50" height="50">
<path d="M60 81C73.8071 81 85 69.8071 85 56C85 42.1929 73.8071 31 60 31C46.1929 31 35 42.1929 35 56C35 69.8071 46.1929 81 60 81Z" fill="black"/>
</mask>
<g mask="url(#mask0_38_1336)">
<path d="M60 81C73.8071 81 85 69.8071 85 56C85 42.1929 73.8071 31 60 31C46.1929 31 35 42.1929 35 56C35 69.8071 46.1929 81 60 81Z" fill="black"/>
<path d="M76.5301 74.7555L54.2061 46H50V65.9916H53.3648V50.2734L73.8887 76.7902C74.8133 76.1713 75.6957 75.4916 76.5301 74.7555Z" fill="url(#paint0_linear_38_1336)"/>
<path d="M66.9445 46H70.2779V66H66.9445V46Z" fill="url(#paint1_linear_38_1336)"/>
</g>
<defs>
<filter id="filter0_d_38_1336" x="4.03845" y="0" width="111.923" height="119" filterUnits="userSpaceOnUse" color-interpolation-filters="sRGB">
<feFlood flood-opacity="0" result="BackgroundImageFix"/>
<feColorMatrix in="SourceAlpha" type="matrix" values="0 0 0 0 0 0 0 0 0 0 0 0 0 0 0 0 0 0 127 0" result="hardAlpha"/>
<feOffset dy="4"/>
<feGaussianBlur stdDeviation="2"/>
<feComposite in2="hardAlpha" operator="out"/>
<feColorMatrix type="matrix" values="0 0 0 0 0 0 0 0 0 0 0 0 0 0 0 0 0 0 0.25 0"/>
<feBlend mode="normal" in2="BackgroundImageFix" result="effect1_dropShadow_38_1336"/>
<feBlend mode="normal" in="SourceGraphic" in2="effect1_dropShadow_38_1336" result="shape"/>
</filter>
<linearGradient id="paint0_linear_38_1336" x1="64.7595" y1="63.3611" x2="73.6189" y2="74.342" gradientUnits="userSpaceOnUse">
<stop stop-color="white"/>
<stop offset="1" stop-color="white" stop-opacity="0"/>
</linearGradient>
<linearGradient id="paint1_linear_38_1336" x1="68.6112" y1="46" x2="68.5548" y2="60.6874" gradientUnits="userSpaceOnUse">
<stop stop-color="white"/>
<stop offset="1" stop-color="white" stop-opacity="0"/>
</linearGradient>
</defs>
</svg>
