<svg width="120" height="119" viewBox="0 0 120 119" fill="none" xmlns="http://www.w3.org/2000/svg">
<g filter="url(#filter0_d_37_1205)">
<path d="M60 0L111.962 27.75V83.25L60 111L8.03848 83.25V27.75L60 0Z" fill="#171717"/>
<path d="M10.0385 28.9492L60 2.26734L109.962 28.9492V82.0508L60 108.733L10.0385 82.0508V28.9492Z" stroke="white" stroke-width="4"/>
</g>
<path d="M60.17 81C59.4954 81.0002 58.8327 80.8229 58.2485 80.4857L52.1341 76.866C51.2216 76.3553 51.6663 76.1749 51.9681 76.0696C52.9386 75.7697 53.8678 75.3498 54.7342 74.8196C54.8067 74.786 54.8866 74.7715 54.9663 74.7775C55.0459 74.7834 55.1228 74.8096 55.1895 74.8535L59.8878 77.6446C59.9753 77.6909 60.0728 77.7151 60.1717 77.7151C60.2707 77.7151 60.3682 77.6909 60.4557 77.6446L78.7774 67.0694C78.8631 67.0181 78.934 66.9453 78.9832 66.8583C79.0323 66.7713 79.058 66.673 79.0577 66.573V45.4191C79.0578 45.3176 79.0317 45.2178 78.982 45.1293C78.9322 45.0408 78.8605 44.9665 78.7738 44.9138L60.4521 34.3476C60.3657 34.2989 60.2682 34.2733 60.1691 34.2733C60.0699 34.2733 59.9724 34.2989 59.886 34.3476L41.5751 44.9174C41.4877 44.969 41.4152 45.0423 41.3645 45.1303C41.3138 45.2182 41.2867 45.3177 41.2858 45.4191V66.5641C41.286 66.6638 41.3128 66.7617 41.3633 66.8476C41.4138 66.9336 41.4863 67.0046 41.5733 67.0534L46.5983 69.9534C49.3216 71.3141 50.9895 69.7106 50.9895 68.0998V47.2227C50.9895 47.0807 51.0459 46.9444 51.1464 46.8439C51.2469 46.7435 51.3831 46.687 51.5252 46.687H53.8467C53.9887 46.687 54.125 46.7435 54.2255 46.8439C54.3259 46.9444 54.3824 47.0807 54.3824 47.2227V68.1016C54.3824 71.7356 52.4038 73.816 48.9573 73.816C47.4705 73.8419 46.0069 73.4442 44.7376 72.6695L39.9215 69.907C39.3368 69.5665 38.8517 69.0786 38.5145 68.492C38.1773 67.9054 37.9999 67.2407 38 66.5641V45.4191C37.9983 44.7415 38.1749 44.0754 38.5122 43.4876C38.8495 42.8999 39.3355 42.4113 39.9215 42.0709L58.2449 31.4922C58.8352 31.1692 59.4972 31 60.17 31C60.8428 31 61.5047 31.1692 62.095 31.4922L80.4167 42.0709C81.0013 42.4107 81.4865 42.8979 81.824 43.4839C82.1615 44.0698 82.3394 44.734 82.3399 45.4102V66.5641C82.3389 67.2407 82.1609 67.9052 81.8235 68.4917C81.4861 69.0781 81.0011 69.566 80.4167 69.907L62.095 80.4857C61.5097 80.8234 60.8457 81.0008 60.17 81Z" fill="#83CD29"/>
<path d="M56.6949 59.4872C56.6949 59.3452 56.7514 59.2089 56.8519 59.1084C56.9523 59.008 57.0886 58.9515 57.2307 58.9515H59.6003C59.727 58.9519 59.8493 58.9972 59.9458 59.0792C60.0422 59.1613 60.1065 59.2748 60.1271 59.3997C60.4843 61.8123 61.5557 63.0284 66.4004 63.0284C70.2594 63.0284 71.9041 62.1551 71.9041 60.1069C71.9041 58.9265 71.438 58.0497 65.4397 57.4622C60.4254 56.9658 57.3253 55.8551 57.3253 51.8479C57.3253 48.1514 60.4414 45.946 65.6647 45.946C71.5344 45.946 74.4398 47.9835 74.8077 52.355C74.8133 52.428 74.8039 52.5013 74.7801 52.5706C74.7563 52.6398 74.7185 52.7034 74.6691 52.7574C74.6198 52.8115 74.5598 52.8548 74.4931 52.8848C74.4263 52.9148 74.3541 52.9308 74.2809 52.9318H71.8952C71.7755 52.9301 71.6598 52.8884 71.5666 52.8133C71.4734 52.7382 71.408 52.6341 71.3809 52.5175C70.8112 49.98 69.4165 49.1692 65.6665 49.1692C61.4522 49.1692 60.9629 50.6371 60.9629 51.7371C60.9629 53.0693 61.5414 53.4586 67.2308 54.2104C72.8612 54.955 75.5363 56.0086 75.5363 59.9658C75.5363 63.9587 72.2077 66.2445 66.4022 66.2445C58.3753 66.2552 56.6949 62.5748 56.6949 59.4872Z" fill="#83CD29"/>
<defs>
<filter id="filter0_d_37_1205" x="4.03857" y="0" width="111.923" height="119" filterUnits="userSpaceOnUse" color-interpolation-filters="sRGB">
<feFlood flood-opacity="0" result="BackgroundImageFix"/>
<feColorMatrix in="SourceAlpha" type="matrix" values="0 0 0 0 0 0 0 0 0 0 0 0 0 0 0 0 0 0 127 0" result="hardAlpha"/>
<feOffset dy="4"/>
<feGaussianBlur stdDeviation="2"/>
<feComposite in2="hardAlpha" operator="out"/>
<feColorMatrix type="matrix" values="0 0 0 0 0 0 0 0 0 0 0 0 0 0 0 0 0 0 0.25 0"/>
<feBlend mode="normal" in2="BackgroundImageFix" result="effect1_dropShadow_37_1205"/>
<feBlend mode="normal" in="SourceGraphic" in2="effect1_dropShadow_37_1205" result="shape"/>
</filter>
</defs>
</svg>
