<svg width="120" height="119" viewBox="0 0 120 119" fill="none" xmlns="http://www.w3.org/2000/svg">
<g filter="url(#filter0_d_37_695)">
<path d="M60 0L111.962 27.75V83.25L60 111L8.03848 83.25V27.75L60 0Z" fill="#6181B6"/>
<path d="M10.0385 28.9492L60 2.26734L109.962 28.9492V82.0508L60 108.733L10.0385 82.0508V28.9492Z" stroke="white" stroke-width="4"/>
</g>
<path d="M60 76.0625C82.0914 76.0625 100 66.6465 100 55.0312C100 43.416 82.0914 34 60 34C37.9086 34 20 43.416 20 55.0312C20 66.6465 37.9086 76.0625 60 76.0625Z" fill="url(#paint0_radial_37_695)"/>
<path d="M59.9999 74.5C81.2284 74.5 98.4374 65.7835 98.4374 55.0312C98.4374 44.279 81.2284 35.5625 59.9999 35.5625C38.7715 35.5625 21.5624 44.279 21.5624 55.0312C21.5624 65.7835 38.7715 74.5 59.9999 74.5Z" fill="#6181B6"/>
<path d="M67.7813 61.3439L69.6875 51.5314C70.125 49.3126 69.75 47.6564 68.625 46.6251C67.5313 45.6251 65.6563 45.1251 62.9063 45.1251H59.5938L60.5313 40.2501C60.5625 40.0626 60.5313 39.8751 60.4063 39.7189C60.2813 39.5626 60.125 39.5001 59.9375 39.5001H55.375C55.0625 39.5001 54.8125 39.7189 54.75 40.0001L52.7188 50.4064C52.5313 49.2189 52.0938 48.2189 51.3438 47.4064C50 45.8751 47.9063 45.0939 45.0625 45.0939H36.2813C35.9688 45.0939 35.7188 45.3126 35.6563 45.5939L31.5625 66.7189C31.5313 66.9064 31.5625 67.0939 31.6875 67.2501C31.8125 67.4064 31.9688 67.4689 32.1563 67.4689H36.75C37.0625 67.4689 37.3125 67.2501 37.375 66.9689L38.375 61.8751H41.7813C43.5625 61.8751 45.0938 61.6876 46.25 61.3126C47.4688 60.9064 48.5625 60.2501 49.5313 59.3439C50.3125 58.6251 50.9688 57.8126 51.4688 56.9376L50.6563 61.1564C50.625 61.3439 50.6563 61.5314 50.7813 61.6876C50.9063 61.8439 51.0625 61.9064 51.25 61.9064H55.8125C56.125 61.9064 56.375 61.6876 56.4375 61.4064L58.6875 49.8439H61.8125C63.1563 49.8439 63.5313 50.0939 63.6563 50.2189C63.75 50.3126 63.9375 50.6876 63.7188 51.8439L61.9063 61.1876C61.875 61.3751 61.9063 61.5626 62.0313 61.7189C62.1563 61.8751 62.3125 61.9376 62.5 61.9376H67.1875C67.4688 61.8439 67.7188 61.6251 67.7813 61.3439ZM46.6563 53.2189C46.375 54.6876 45.8438 55.7501 45.0625 56.3439C44.2813 56.9376 43 57.2501 41.3125 57.2501H39.2813L40.75 49.6876H43.375C45.3125 49.6876 46.0938 50.0939 46.4063 50.4376C46.8125 50.9376 46.9063 51.9064 46.6563 53.2189ZM87.2813 47.4064C85.9375 45.8751 83.8438 45.0939 81 45.0939H72.1563C71.8438 45.0939 71.5938 45.3126 71.5313 45.5939L67.4375 66.6876C67.4063 66.8751 67.4375 67.0626 67.5625 67.2189C67.6875 67.3751 67.8438 67.4376 68.0313 67.4376H72.625C72.9375 67.4376 73.1875 67.2189 73.25 66.9376L74.25 61.8439H77.6563C79.4375 61.8439 80.9688 61.6564 82.125 61.2814C83.3438 60.8751 84.4375 60.2189 85.4063 59.3126C86.2188 58.5626 86.9063 57.7189 87.4063 56.8126C87.9063 55.9064 88.2813 54.9064 88.5 53.8126C89.0313 51.0939 88.625 48.9689 87.2813 47.4064ZM82.5 53.2189C82.2188 54.6876 81.6875 55.7501 80.9063 56.3439C80.125 56.9376 78.8438 57.2501 77.1563 57.2501H75.125L76.5938 49.6876H79.2188C81.1563 49.6876 81.9375 50.0939 82.25 50.4376C82.6875 50.9376 82.7813 51.9064 82.5 53.2189Z" fill="white"/>
<path d="M43.3751 49.0625C45.1251 49.0625 46.2813 49.375 46.8751 50.0313C47.4688 50.6875 47.5938 51.7813 47.2813 53.3438C46.9688 54.9688 46.3438 56.1563 45.4376 56.8438C44.5313 57.5313 43.1563 57.875 41.3126 57.875H38.5313L40.2501 49.0625H43.3751ZM32.1876 66.8125H36.7813L37.8751 61.2188H41.8126C43.5626 61.2188 44.9688 61.0313 46.0938 60.6563C47.2188 60.2813 48.2188 59.6875 49.1563 58.8125C49.9376 58.0938 50.5626 57.3125 51.0313 56.4688C51.5001 55.625 51.8438 54.6875 52.0313 53.6563C52.5313 51.1563 52.1563 49.2188 50.9376 47.8125C49.7188 46.4063 47.7813 45.7188 45.1251 45.7188H36.2813L32.1876 66.8125ZM55.4063 40.125H59.9688L58.8751 45.7188H62.9376C65.5001 45.7188 67.2501 46.1562 68.2188 47.0625C69.1876 47.9688 69.4688 49.4062 69.0938 51.4063L67.1876 61.2188H62.5626L64.3751 51.875C64.5938 50.8125 64.5001 50.0938 64.1563 49.7188C63.8126 49.3438 63.0313 49.125 61.8751 49.125H58.2188L55.8751 61.2188H51.3126L55.4063 40.125ZM79.2188 49.0625C80.9688 49.0625 82.1251 49.375 82.7188 50.0313C83.3126 50.6875 83.4376 51.7813 83.1251 53.3438C82.8126 54.9688 82.1876 56.1563 81.2813 56.8438C80.3751 57.5313 79.0001 57.875 77.1563 57.875H74.3751L76.0938 49.0625H79.2188ZM68.0313 66.8125H72.6251L73.7188 61.2188H77.6563C79.4063 61.2188 80.8126 61.0313 81.9376 60.6563C83.0626 60.2813 84.0626 59.6875 85.0001 58.8125C85.7813 58.0938 86.4063 57.3125 86.8751 56.4688C87.3438 55.625 87.6876 54.6875 87.8751 53.6563C88.3751 51.1563 88.0001 49.2188 86.7813 47.8125C85.5626 46.4063 83.6251 45.7188 80.9688 45.7188H72.1251L68.0313 66.8125Z" fill="#000004"/>
<defs>
<filter id="filter0_d_37_695" x="4.03845" y="0" width="111.923" height="119" filterUnits="userSpaceOnUse" color-interpolation-filters="sRGB">
<feFlood flood-opacity="0" result="BackgroundImageFix"/>
<feColorMatrix in="SourceAlpha" type="matrix" values="0 0 0 0 0 0 0 0 0 0 0 0 0 0 0 0 0 0 127 0" result="hardAlpha"/>
<feOffset dy="4"/>
<feGaussianBlur stdDeviation="2"/>
<feComposite in2="hardAlpha" operator="out"/>
<feColorMatrix type="matrix" values="0 0 0 0 0 0 0 0 0 0 0 0 0 0 0 0 0 0 0.25 0"/>
<feBlend mode="normal" in2="BackgroundImageFix" result="effect1_dropShadow_37_695"/>
<feBlend mode="normal" in="SourceGraphic" in2="effect1_dropShadow_37_695" result="shape"/>
</filter>
<radialGradient id="paint0_radial_37_695" cx="0" cy="0" r="1" gradientUnits="userSpaceOnUse" gradientTransform="translate(44.0161 41.3961) scale(52.5298)">
<stop stop-color="white"/>
<stop offset="0.5" stop-color="#4C6B97"/>
<stop offset="1" stop-color="#231F20"/>
</radialGradient>
</defs>
</svg>
