<svg width="120" height="119" viewBox="0 0 120 119" fill="none" xmlns="http://www.w3.org/2000/svg">
<g filter="url(#filter0_d_38_1337)">
<path d="M60 0L111.962 27.75V83.25L60 111L8.03848 83.25V27.75L60 0Z" fill="#EFEFEF"/>
<path d="M10.0385 28.9492L60 2.26734L109.962 28.9492V82.0508L60 108.733L10.0385 82.0508V28.9492Z" stroke="white" stroke-width="4"/>
</g>
<path d="M84.7955 59.1744C86.5453 45.477 76.8719 32.9541 63.1994 31.2045C49.527 29.4547 36.9541 39.1281 35.2045 52.8006C33.4547 66.4731 43.1281 79.0209 56.8006 80.7955C70.4981 82.5453 83.0209 72.8719 84.7955 59.1744Z" fill="#FF6C37"/>
<path d="M69.0234 47.0516L58.4752 57.5998L55.5005 54.6252C65.8738 44.2522 66.8986 45.152 69.0232 47.0516H69.0234Z" fill="white"/>
<path d="M58.4752 57.8496C58.4002 57.8496 58.3502 57.8246 58.3002 57.7746L55.3008 54.8002C55.2771 54.7776 55.2583 54.7505 55.2454 54.7204C55.2325 54.6904 55.2259 54.658 55.2259 54.6253C55.2259 54.5926 55.2325 54.5602 55.2454 54.5302C55.2583 54.5001 55.2771 54.473 55.3008 54.4504C65.8489 43.9021 66.9487 44.9019 69.1733 46.9016C69.2233 46.9516 69.2483 47.0016 69.2483 47.0766C69.2483 47.1516 69.2233 47.2016 69.1733 47.2516L58.6252 57.7746C58.6002 57.8246 58.5252 57.8496 58.4752 57.8496ZM55.8508 54.6252L58.4752 57.2498L68.6485 47.0766C66.7989 45.4269 65.5489 44.9269 55.8508 54.6254V54.6252Z" fill="#FF6C37"/>
<path d="M61.4996 60.6243L58.6252 57.7496L69.1732 47.2016C71.9978 50.0512 67.7736 54.6752 61.4996 60.6243Z" fill="white"/>
<path d="M61.4996 60.8742C61.4246 60.8742 61.3746 60.8492 61.3248 60.7992L58.4502 57.9246C58.4002 57.8746 58.4002 57.8246 58.4002 57.7496C58.4002 57.6748 58.4252 57.6246 58.4752 57.5748L69.0235 47.0266C69.046 47.0029 69.0732 46.984 69.1033 46.9711C69.1333 46.9582 69.1657 46.9515 69.1985 46.9515C69.2312 46.9515 69.2636 46.9582 69.2937 46.9711C69.3237 46.984 69.3509 47.0029 69.3735 47.0266C69.6926 47.3219 69.9447 47.6822 70.1129 48.0832C70.281 48.4842 70.3613 48.9166 70.3483 49.3512C70.2983 52.1258 67.149 55.65 61.6998 60.7992C61.6248 60.8492 61.5498 60.8742 61.4998 60.8742H61.4996ZM58.9752 57.7496C60.5748 59.3744 61.2498 60.0242 61.4996 60.2742C65.6988 56.275 69.7731 52.1758 69.7983 49.3512C69.8233 48.7014 69.5733 48.0514 69.1483 47.5516L58.9752 57.7496Z" fill="#FF6C37"/>
<path d="M55.5508 54.7002L57.6754 56.8248C57.7254 56.8748 57.7254 56.9248 57.6754 56.9748C57.6504 56.9998 57.6504 56.9998 57.6254 56.9998L53.2262 57.9496C53.0012 57.9746 52.8012 57.8246 52.7512 57.5998C52.7262 57.4748 52.7762 57.3498 52.8512 57.2748L55.4008 54.7252C55.4508 54.6752 55.5258 54.6502 55.5508 54.7002Z" fill="white"/>
<path d="M53.1511 58.1997C52.7761 58.1997 52.5013 57.8997 52.5013 57.5249C52.5013 57.3499 52.5763 57.1749 52.7013 57.0499L55.2508 54.5002C55.4008 54.3752 55.6008 54.3752 55.7508 54.5002L57.8754 56.6249C58.0254 56.7499 58.0254 56.9749 57.8754 57.1249C57.8254 57.1749 57.7754 57.1999 57.7004 57.2249L53.3011 58.1747C53.2511 58.1747 53.2011 58.1997 53.1511 58.1997ZM55.4758 54.9752L53.0261 57.4249C52.9761 57.4749 52.9511 57.5499 53.0011 57.6249C53.0261 57.6999 53.1011 57.7247 53.1761 57.6999L57.3004 56.7999L55.4758 54.9752Z" fill="#FF6C37"/>
<path d="M74.5973 41.2027C72.9977 39.6529 70.4231 39.7029 68.8735 41.3277C67.3236 42.9523 67.3736 45.502 68.9985 47.0516C69.6397 47.6712 70.4681 48.0612 71.3542 48.1607C72.2404 48.2602 73.1346 48.0636 73.8973 47.6016L71.0477 44.752L74.5971 41.2027H74.5973Z" fill="white"/>
<path d="M71.7979 48.4264C69.4233 48.4264 67.4987 46.5018 67.4987 44.1272C67.4987 41.7526 69.4233 39.8279 71.7979 39.8279C72.8975 39.8279 73.9725 40.2529 74.7725 41.0277C74.8223 41.0777 74.8473 41.1277 74.8473 41.2027C74.8473 41.2777 74.8223 41.3277 74.7723 41.3777L71.3979 44.752L74.0475 47.4016C74.1475 47.5016 74.1475 47.6516 74.0475 47.7516L73.9975 47.8016C73.3475 48.2014 72.5727 48.4266 71.7979 48.4266V48.4264ZM71.7979 40.3529C69.6983 40.3529 67.9985 42.0526 68.0235 44.1522C68.0235 46.2518 69.7233 47.9516 71.8229 47.9266C72.3977 47.9266 72.9727 47.8016 73.4975 47.5266L70.8731 44.927C70.8231 44.877 70.7981 44.827 70.7981 44.752C70.7981 44.6772 70.8231 44.627 70.8731 44.5772L74.2225 41.2276C73.5475 40.6527 72.6977 40.3529 71.7979 40.3529Z" fill="#FF6C37"/>
<path d="M74.6723 41.2777L74.6223 41.2277L71.048 44.7519L73.8724 47.5766C74.1474 47.4016 74.4223 47.2016 74.6473 46.9766C75.0259 46.6056 75.3273 46.1632 75.5337 45.675C75.7402 45.1868 75.8477 44.6624 75.85 44.1324C75.8523 43.6023 75.7494 43.077 75.5473 42.587C75.3451 42.097 75.0477 41.652 74.6723 41.2777Z" fill="white"/>
<path d="M73.8974 47.8516C73.8225 47.8516 73.7725 47.8266 73.7225 47.7766L70.8728 44.9269C70.823 44.8769 70.798 44.8269 70.798 44.7519C70.798 44.6771 70.823 44.6269 70.873 44.5771L74.4223 41.0277C74.4448 41.004 74.472 40.9851 74.5021 40.9722C74.5321 40.9593 74.5645 40.9527 74.5973 40.9527C74.63 40.9527 74.6624 40.9593 74.6925 40.9722C74.7225 40.9851 74.7497 41.004 74.7723 41.0277L74.8473 41.0777C76.5221 42.7523 76.5221 45.4519 74.8723 47.1516C74.6223 47.4016 74.3475 47.6266 74.0475 47.8016C73.9725 47.8266 73.9225 47.8516 73.8974 47.8516ZM71.3978 44.7519L73.9225 47.2766C74.1225 47.1516 74.3225 46.9766 74.4723 46.8268C75.8971 45.4019 75.9721 43.0773 74.5973 41.5775L71.398 44.7519H71.3978Z" fill="#FF6C37"/>
<path d="M69.4483 47.5016C69.1597 47.2135 68.7687 47.0517 68.361 47.0517C67.9532 47.0517 67.5622 47.2135 67.2736 47.5016L57.8504 56.9248L59.425 58.4996L69.3983 49.7512C70.0483 49.2012 70.0981 48.2264 69.5483 47.5766C69.4983 47.5516 69.4733 47.5266 69.4483 47.5016Z" fill="white"/>
<path d="M59.4 58.7496C59.325 58.7496 59.275 58.7246 59.225 58.6746L57.6504 57.0998C57.6267 57.0773 57.6078 57.0501 57.5949 57.02C57.582 56.99 57.5754 56.9576 57.5754 56.9248C57.5754 56.8921 57.582 56.8597 57.5949 56.8296C57.6078 56.7996 57.6267 56.7724 57.6504 56.7498L67.0737 47.3266C67.2391 47.1602 67.4358 47.0282 67.6524 46.9382C67.869 46.8481 68.1013 46.8017 68.336 46.8017C68.5706 46.8017 68.8029 46.8481 69.0195 46.9382C69.2361 47.0282 69.4328 47.1602 69.5983 47.3266C69.7646 47.492 69.8966 47.6887 69.9867 47.9054C70.0768 48.122 70.1232 48.3543 70.1232 48.5889C70.1232 48.8235 70.0768 49.0558 69.9867 49.2724C69.8966 49.4891 69.7646 49.6858 69.5983 49.8512L69.5233 49.9262L59.55 58.6746C59.525 58.7246 59.475 58.7496 59.4 58.7496ZM58.2002 56.9248L59.425 58.1496L69.2233 49.5512C69.7733 49.1012 69.8233 48.2764 69.3733 47.7266C68.9235 47.1766 68.0985 47.1266 67.5487 47.5766C67.5237 47.6016 67.4987 47.6266 67.4487 47.6516L58.2002 56.925V56.9248Z" fill="#FF6C37"/>
<path d="M50.6266 67.6479C50.5268 67.6979 50.4768 67.7979 50.5016 67.8979L50.9266 69.6975C51.0266 69.9475 50.8766 70.2475 50.6016 70.3225C50.4018 70.3975 50.1768 70.3225 50.0518 70.1725L47.3022 67.4479L56.2756 58.4746L59.3752 58.5246L61.4748 60.6242C60.9748 61.049 57.9504 63.9736 50.6266 67.6479Z" fill="white"/>
<path d="M50.4268 70.5723C50.2268 70.5723 50.0268 70.4975 49.9018 70.3475L47.1772 67.6229C47.1274 67.5729 47.1024 67.5229 47.1024 67.448C47.1024 67.373 47.1274 67.323 47.1774 67.273L56.1506 58.2996C56.2006 58.2496 56.2756 58.2246 56.3256 58.2246L59.4252 58.2746C59.5 58.2746 59.5502 58.2996 59.6 58.3496L61.6996 60.4492C61.7496 60.4992 61.7746 60.5742 61.7746 60.6492C61.7746 60.7242 61.7496 60.7742 61.6746 60.8242L61.4996 60.974C58.8502 63.2986 55.2508 65.6232 50.7766 67.8479L51.2016 69.6227C51.2766 69.9475 51.1266 70.2975 50.8266 70.4723C50.6766 70.5475 50.5516 70.5725 50.4268 70.5725V70.5723ZM47.6772 67.448L50.2518 69.9975C50.3268 70.1225 50.4768 70.1725 50.6016 70.0975C50.7266 70.0225 50.7766 69.8725 50.7016 69.7475L50.2768 67.9479C50.2268 67.7229 50.3268 67.5229 50.5268 67.423C54.9508 65.1984 58.5252 62.8988 61.1498 60.6242L59.3002 58.7746L56.4256 58.7246L47.6772 67.448Z" fill="#FF6C37"/>
<path d="M45.1778 69.5977L47.3272 67.4481L50.5268 70.6473L45.4276 70.2975C45.2026 70.2725 45.0526 70.0725 45.0778 69.8475C45.0778 69.7475 45.1028 69.6475 45.1776 69.5975L45.1778 69.5977Z" fill="white"/>
<path d="M50.5268 70.8723L45.4026 70.5225C45.0276 70.4975 44.7776 70.1725 44.8028 69.7975C44.8278 69.6475 44.8778 69.4976 45.0028 69.3976L47.1524 67.248C47.1749 67.2244 47.2021 67.2055 47.2321 67.1926C47.2622 67.1798 47.2946 67.1731 47.3273 67.1731C47.36 67.1731 47.3924 67.1798 47.4224 67.1926C47.4525 67.2055 47.4796 67.2244 47.5022 67.248L50.7016 70.4473C50.7766 70.5225 50.8016 70.6225 50.7516 70.7223C50.7016 70.8223 50.6266 70.8723 50.5268 70.8723ZM47.3272 67.798L45.3526 69.7727C45.2776 69.8225 45.2776 69.9475 45.3526 69.9975C45.3776 70.0225 45.4026 70.0475 45.4526 70.0475L49.8768 70.3475L47.3272 67.7978V67.798ZM55.4008 59.6244C55.2508 59.6244 55.1508 59.4994 55.1508 59.3744C55.1508 59.2994 55.1758 59.2494 55.2258 59.1994L57.6504 56.7748C57.673 56.7511 57.7001 56.7322 57.7302 56.7193C57.7603 56.7064 57.7927 56.6998 57.8254 56.6998C57.8582 56.6998 57.8905 56.7064 57.9206 56.7193C57.9507 56.7322 57.9779 56.7511 58.0004 56.7748L59.575 58.3496C59.65 58.4246 59.675 58.4996 59.65 58.5996C59.625 58.6746 59.55 58.7496 59.45 58.7746L55.4508 59.6242H55.4008V59.6244ZM57.8254 57.2998L56.1756 58.9494L58.8752 58.3746L57.8254 57.2998Z" fill="#FF6C37"/>
<path d="M59.375 58.5246L56.6256 59.1244C56.4256 59.1744 56.2256 59.0494 56.1756 58.8494C56.1506 58.7244 56.1756 58.5994 56.2756 58.4996L57.8004 56.9748L59.375 58.5246Z" fill="white"/>
<path d="M56.5756 59.3744C56.4933 59.3753 56.4116 59.3597 56.3354 59.3286C56.2592 59.2975 56.19 59.2514 56.1318 59.1932C56.0736 59.135 56.0276 59.0658 55.9965 58.9896C55.9654 58.9134 55.9498 58.8317 55.9506 58.7494C55.9506 58.5746 56.0256 58.4246 56.1256 58.2996L57.6504 56.7748C57.673 56.7511 57.7001 56.7322 57.7302 56.7193C57.7603 56.7065 57.7927 56.6998 57.8254 56.6998C57.8581 56.6998 57.8905 56.7065 57.9206 56.7193C57.9507 56.7322 57.9778 56.7511 58.0004 56.7748L59.575 58.3496C59.65 58.4246 59.675 58.4996 59.65 58.5996C59.625 58.6746 59.55 58.7496 59.45 58.7746L56.7006 59.3744H56.5756ZM57.8254 57.2998L56.4756 58.6494C56.4256 58.6996 56.4256 58.7496 56.4506 58.7994C56.4756 58.8494 56.5256 58.8744 56.6006 58.8744L58.9002 58.3744L57.8254 57.2998ZM74.6973 43.6772C74.6473 43.5274 74.4723 43.4524 74.3223 43.5024C74.1725 43.5524 74.0975 43.7272 74.1475 43.8774C74.1475 43.9022 74.1725 43.9272 74.1725 43.9522C74.3225 44.2522 74.2725 44.6272 74.0725 44.902C73.9725 45.027 73.9975 45.202 74.0975 45.302C74.2225 45.402 74.3973 45.377 74.4973 45.252C74.8723 44.777 74.9473 44.1772 74.6973 43.6772Z" fill="#FF6C37"/>
<defs>
<filter id="filter0_d_38_1337" x="4.03845" y="0" width="111.923" height="119" filterUnits="userSpaceOnUse" color-interpolation-filters="sRGB">
<feFlood flood-opacity="0" result="BackgroundImageFix"/>
<feColorMatrix in="SourceAlpha" type="matrix" values="0 0 0 0 0 0 0 0 0 0 0 0 0 0 0 0 0 0 127 0" result="hardAlpha"/>
<feOffset dy="4"/>
<feGaussianBlur stdDeviation="2"/>
<feComposite in2="hardAlpha" operator="out"/>
<feColorMatrix type="matrix" values="0 0 0 0 0 0 0 0 0 0 0 0 0 0 0 0 0 0 0.25 0"/>
<feBlend mode="normal" in2="BackgroundImageFix" result="effect1_dropShadow_38_1337"/>
<feBlend mode="normal" in="SourceGraphic" in2="effect1_dropShadow_38_1337" result="shape"/>
</filter>
</defs>
</svg>
