<svg width="120" height="119" viewBox="0 0 120 119" fill="none" xmlns="http://www.w3.org/2000/svg">
<g filter="url(#filter0_d_37_696)">
<path d="M60 0L111.962 27.75V83.25L60 111L8.03848 83.25V27.75L60 0Z" fill="#1E415E"/>
<path d="M10.0385 28.9492L60 2.26734L109.962 28.9492V82.0508L60 108.733L10.0385 82.0508V28.9492Z" stroke="white" stroke-width="4"/>
</g>
<path d="M59.9515 31.0216C47.1927 31.0216 47.9996 36.5384 47.9996 36.5384V42.2709H60.133V44.0679H43.1674C43.1674 44.0679 35 43.0615 35 56.009C35 68.9565 42.2114 68.43 42.2114 68.43H46.3751V62.3902C46.3751 62.3902 46.1415 55.1788 53.3834 55.1788H65.5348C65.5348 55.1788 72.3131 55.2866 72.3131 48.6161V37.6705C72.3131 37.6705 73.341 31 60.018 31L59.9515 31.0216ZM53.2451 34.8618C53.6764 34.8509 54.1013 34.9682 54.466 35.1988C54.8307 35.4294 55.1188 35.763 55.2939 36.1573C55.469 36.5517 55.5233 36.9891 55.4498 37.4143C55.3763 37.8395 55.1783 38.2333 54.881 38.546C54.5836 38.8587 54.2002 39.0762 53.7793 39.171C53.3583 39.2657 52.9187 39.2335 52.516 39.0785C52.1134 38.9234 51.7657 38.6524 51.5171 38.2997C51.2685 37.9471 51.13 37.5286 51.1192 37.0973V37.0613C51.1192 36.4827 51.349 35.9278 51.7582 35.5187C52.1673 35.1096 52.7222 34.8797 53.3008 34.8797L53.2451 34.8618Z" fill="url(#paint0_linear_37_696)"/>
<path d="M60.3108 80.9964C73.0696 80.9964 72.2627 75.4616 72.2627 75.4616V69.7471H60.1311V67.9501H77.1488C77.1488 67.9501 85.3162 68.863 85.3162 55.991C85.3162 43.119 78.1048 43.57 78.1048 43.57H73.8872V49.5307C73.8872 49.5307 74.1208 56.7421 66.8789 56.7421H54.7221C54.7221 56.7421 47.9384 56.6397 47.9384 63.3102V74.3295C47.9384 74.3295 46.9105 81 60.2335 81H60.3054L60.3108 80.9964ZM67.0172 77.1382C66.5859 77.1491 66.161 77.0318 65.7963 76.8012C65.4316 76.5706 65.1435 76.237 64.9683 75.8427C64.7932 75.4483 64.739 75.0109 64.8125 74.5857C64.886 74.1605 65.084 73.7667 65.3813 73.454C65.6787 73.1413 66.0621 72.9238 66.483 72.8291C66.904 72.7343 67.3436 72.7665 67.7462 72.9215C68.1489 73.0766 68.4965 73.3476 68.7452 73.7003C68.9938 74.0529 69.1323 74.4714 69.1431 74.9027V74.9567C69.1431 75.5352 68.9132 76.0901 68.5041 76.4993C68.095 76.9084 67.5401 77.1382 66.9615 77.1382H67.0154H67.0172Z" fill="url(#paint1_linear_37_696)"/>
<defs>
<filter id="filter0_d_37_696" x="4.03845" y="0" width="111.923" height="119" filterUnits="userSpaceOnUse" color-interpolation-filters="sRGB">
<feFlood flood-opacity="0" result="BackgroundImageFix"/>
<feColorMatrix in="SourceAlpha" type="matrix" values="0 0 0 0 0 0 0 0 0 0 0 0 0 0 0 0 0 0 127 0" result="hardAlpha"/>
<feOffset dy="4"/>
<feGaussianBlur stdDeviation="2"/>
<feComposite in2="hardAlpha" operator="out"/>
<feColorMatrix type="matrix" values="0 0 0 0 0 0 0 0 0 0 0 0 0 0 0 0 0 0 0.25 0"/>
<feBlend mode="normal" in2="BackgroundImageFix" result="effect1_dropShadow_37_696"/>
<feBlend mode="normal" in="SourceGraphic" in2="effect1_dropShadow_37_696" result="shape"/>
</filter>
<linearGradient id="paint0_linear_37_696" x1="39.9726" y1="35.9146" x2="63.8489" y2="59.7369" gradientUnits="userSpaceOnUse">
<stop stop-color="#387EB8"/>
<stop offset="1" stop-color="#366994"/>
</linearGradient>
<linearGradient id="paint1_linear_37_696" x1="54.0976" y1="51.433" x2="81.3766" y2="75.248" gradientUnits="userSpaceOnUse">
<stop stop-color="#FFE052"/>
<stop offset="1" stop-color="#FFC331"/>
</linearGradient>
</defs>
</svg>
