<svg width="120" height="119" viewBox="0 0 120 119" fill="none" xmlns="http://www.w3.org/2000/svg">
<g filter="url(#filter0_d_37_691)">
<path d="M60 0L111.962 27.75V83.25L60 111L8.03848 83.25V27.75L60 0Z" fill="#EFEFEF" fill-opacity="0.94" shape-rendering="crispEdges"/>
<path d="M10.0385 28.9492L60 2.26734L109.962 28.9492V82.0508L60 108.733L10.0385 82.0508V28.9492Z" stroke="white" stroke-width="4" shape-rendering="crispEdges"/>
</g>
<path opacity="0.45" d="M68.1071 31L60.0714 45.2857H44L52.0357 31H68.1071Z" fill="black"/>
<path opacity="0.6" d="M60.0678 45.2857H76.1392L68.1035 31H52.0321L60.0678 45.2857Z" fill="black"/>
<path opacity="0.8" d="M52.0357 59.5714L60.0714 45.2857L52.0357 31L44 45.2857L52.0357 59.5714Z" fill="black"/>
<path opacity="0.45" d="M52.1125 80.9999L60.1483 66.7142H76.2197L68.184 80.9999H52.1125Z" fill="black"/>
<path opacity="0.6" d="M60.1518 66.7142H44.0803L52.116 80.9999H68.1875L60.1518 66.7142Z" fill="black"/>
<path opacity="0.8" d="M68.184 52.4286L60.1483 66.7143L68.184 81L76.2197 66.7143L68.184 52.4286Z" fill="black"/>
<defs>
<filter id="filter0_d_37_691" x="4.03845" y="0" width="111.923" height="119" filterUnits="userSpaceOnUse" color-interpolation-filters="sRGB">
<feFlood flood-opacity="0" result="BackgroundImageFix"/>
<feColorMatrix in="SourceAlpha" type="matrix" values="0 0 0 0 0 0 0 0 0 0 0 0 0 0 0 0 0 0 127 0" result="hardAlpha"/>
<feOffset dy="4"/>
<feGaussianBlur stdDeviation="2"/>
<feComposite in2="hardAlpha" operator="out"/>
<feColorMatrix type="matrix" values="0 0 0 0 0 0 0 0 0 0 0 0 0 0 0 0 0 0 0.25 0"/>
<feBlend mode="normal" in2="BackgroundImageFix" result="effect1_dropShadow_37_691"/>
<feBlend mode="normal" in="SourceGraphic" in2="effect1_dropShadow_37_691" result="shape"/>
</filter>
</defs>
</svg>
