<svg width="120" height="119" viewBox="0 0 120 119" fill="none" xmlns="http://www.w3.org/2000/svg">
<g filter="url(#filter0_d_38_1342)">
<path d="M60 0L111.962 27.75V83.25L60 111L8.03848 83.25V27.75L60 0Z" fill="#E3EAFE"/>
<path d="M10.0385 28.9492L60 2.26734L109.962 28.9492V82.0508L60 108.733L10.0385 82.0508V28.9492Z" stroke="white" stroke-width="4"/>
</g>
<path d="M60 81C73.8071 81 85 69.8071 85 56C85 42.1929 73.8071 31 60 31C46.1929 31 35 42.1929 35 56C35 69.8071 46.1929 81 60 81Z" fill="#1A171B"/>
<path d="M70.8801 40.2377C68.3437 40.3262 66.1301 41.724 64.4822 43.6576C62.6576 45.7777 61.4437 48.2924 60.5691 50.8592C59.0047 49.5769 57.7977 47.917 55.2877 47.1931C53.3477 46.6361 51.31 46.8662 49.4361 48.2623C48.5484 48.9254 47.9369 49.9277 47.6461 50.8699C46.8932 53.3185 48.4377 55.4976 49.1393 56.2801L50.673 57.9238C50.9893 58.2461 51.7508 59.0869 51.3785 60.2924C50.9762 61.6029 49.3961 62.4515 47.7754 61.9515C47.0516 61.7308 46.0117 61.1916 46.2445 60.4322C46.3408 60.1217 46.5631 59.8892 46.6822 59.6207C46.7916 59.39 46.8437 59.217 46.877 59.1154C47.173 58.1486 46.7686 56.8908 45.733 56.5715C44.767 56.2754 43.7785 56.5099 43.3953 57.7539C42.9607 59.167 43.6369 61.7316 47.2592 62.8484C51.5031 64.1523 55.0932 61.8416 55.6023 58.8277C55.923 56.94 55.0707 55.5377 53.5092 53.734L52.2369 52.3269C51.4662 51.557 51.2016 50.2447 51.9992 49.2361C52.6723 48.3853 53.6309 48.0223 55.2008 48.4492C57.4924 49.0715 58.5139 50.6615 60.2184 51.9439C59.5146 54.2523 59.0547 56.5693 58.6383 58.6471L58.3846 60.1961C57.1662 66.5869 56.2361 70.0961 53.8191 72.1107C53.3322 72.457 52.6361 72.9754 51.5869 73.0115C51.0369 73.0285 50.8592 72.6502 50.8516 72.4853C50.8385 72.0992 51.1639 71.9223 51.3801 71.7484C51.7031 71.5723 52.1916 71.2801 52.1584 70.3439C52.1232 69.2377 51.2068 68.2785 49.8822 68.3224C48.89 68.3562 47.3777 69.29 47.4346 70.9992C47.4937 72.7646 49.1393 74.0877 51.6201 74.0039C52.9463 73.9584 55.9076 73.4185 58.8262 69.9492C62.223 65.9722 63.173 61.4131 63.8877 58.0762L64.6854 53.6707C65.1285 53.7238 65.6023 53.7592 66.1178 53.7715C70.3484 53.8607 72.4646 51.6693 72.4961 50.0754C72.517 49.1107 71.8631 48.1615 70.9477 48.183C70.2924 48.2015 69.4691 48.6377 69.2715 49.5439C69.0785 50.433 70.6178 51.2353 69.4146 52.0146C68.56 52.5678 67.0277 52.9576 64.8699 52.6408L65.2623 50.4723C66.0631 46.3599 67.0508 41.3015 70.7977 41.1785C71.0707 41.1646 72.0699 41.1908 72.0932 41.8515C72.1 42.0723 72.0453 42.1285 71.7869 42.6338C71.5238 43.0277 71.4246 43.3631 71.4369 43.7484C71.473 44.7984 72.2715 45.4885 73.4262 45.4469C74.9723 45.3969 75.417 43.8916 75.3916 43.1185C75.3291 41.3021 73.4146 40.1547 70.8799 40.2377H70.8801Z" fill="white"/>
<defs>
<filter id="filter0_d_38_1342" x="4.03848" y="0" width="111.923" height="119" filterUnits="userSpaceOnUse" color-interpolation-filters="sRGB">
<feFlood flood-opacity="0" result="BackgroundImageFix"/>
<feColorMatrix in="SourceAlpha" type="matrix" values="0 0 0 0 0 0 0 0 0 0 0 0 0 0 0 0 0 0 127 0" result="hardAlpha"/>
<feOffset dy="4"/>
<feGaussianBlur stdDeviation="2"/>
<feComposite in2="hardAlpha" operator="out"/>
<feColorMatrix type="matrix" values="0 0 0 0 0 0 0 0 0 0 0 0 0 0 0 0 0 0 0.25 0"/>
<feBlend mode="normal" in2="BackgroundImageFix" result="effect1_dropShadow_38_1342"/>
<feBlend mode="normal" in="SourceGraphic" in2="effect1_dropShadow_38_1342" result="shape"/>
</filter>
</defs>
</svg>
