<svg width="120" height="119" viewBox="0 0 120 119" fill="none" xmlns="http://www.w3.org/2000/svg">
<g filter="url(#filter0_d_118_6538)">
<path d="M60 0L111.962 27.75V83.25L60 111L8.03848 83.25V27.75L60 0Z" fill="#0F256E"/>
<path d="M10.0385 28.9492L60 2.26734L109.962 28.9492V82.0508L60 108.733L10.0385 82.0508V28.9492Z" stroke="white" stroke-width="4"/>
</g>
<path d="M35 37.7891L59.6678 29L85 37.6328L80.8983 70.2696L59.6678 82.0274L38.7695 70.4258L35 37.7891Z" fill="#E23237"/>
<path d="M85 37.6328L59.6678 29V82.0274L80.8983 70.2892L85 37.6328V37.6328Z" fill="#B52E31"/>
<path d="M59.7069 35.1914L44.3359 69.3907L50.078 69.293L53.164 61.5781H66.953L70.332 69.3907L75.8201 69.4883L59.7069 35.1914ZM59.7461 46.1485L64.9413 57.0077H55.1756L59.7461 46.1485Z" fill="white"/>
<defs>
<filter id="filter0_d_118_6538" x="4.03857" y="0" width="111.923" height="119" filterUnits="userSpaceOnUse" color-interpolation-filters="sRGB">
<feFlood flood-opacity="0" result="BackgroundImageFix"/>
<feColorMatrix in="SourceAlpha" type="matrix" values="0 0 0 0 0 0 0 0 0 0 0 0 0 0 0 0 0 0 127 0" result="hardAlpha"/>
<feOffset dy="4"/>
<feGaussianBlur stdDeviation="2"/>
<feComposite in2="hardAlpha" operator="out"/>
<feColorMatrix type="matrix" values="0 0 0 0 0 0 0 0 0 0 0 0 0 0 0 0 0 0 0.25 0"/>
<feBlend mode="normal" in2="BackgroundImageFix" result="effect1_dropShadow_118_6538"/>
<feBlend mode="normal" in="SourceGraphic" in2="effect1_dropShadow_118_6538" result="shape"/>
</filter>
</defs>
</svg>
