<svg width="120" height="119" viewBox="0 0 120 119" fill="none" xmlns="http://www.w3.org/2000/svg">
<g filter="url(#filter0_d_36_438)">
<path d="M60 0L111.962 27.75V83.25L60 111L8.03848 83.25V27.75L60 0Z" fill="#0F0E0F"/>
<path d="M10.0385 28.9492L60 2.26734L109.962 28.9492V82.0508L60 108.733L10.0385 82.0508V28.9492Z" stroke="white" stroke-width="4"/>
</g>
<rect x="46" y="40" width="27" height="31" fill="white"/>
<path d="M44.0083 31C40.9842 31 38.7464 34.1346 38.8466 37.534C38.9428 40.7998 38.8178 45.0299 37.9186 48.4794C37.0168 51.9388 35.4914 54.1303 33 54.4117V57.5883C35.4914 57.8697 37.0168 60.0612 37.9186 63.5209C38.8178 66.9703 38.9428 71.1999 38.8466 74.466C38.7464 77.8649 40.9842 81 44.0087 81H74.9957C78.02 81 80.2572 77.8654 80.157 74.466C80.0609 71.2002 80.1857 66.9703 81.0849 63.5209C81.9873 60.0614 83.5086 57.8695 86 57.5883V54.4117C83.5086 54.1303 81.9873 51.9388 81.0851 48.4794C80.1857 45.0304 80.0609 40.8001 80.157 37.534C80.2572 34.1351 78.02 31 74.9957 31H44.0083ZM68.9323 61.7782C68.9323 66.4591 65.9842 69.2978 61.0917 69.2978H52.7628C52.5246 69.2977 52.2961 69.1856 52.1277 68.9861C51.9593 68.7866 51.8647 68.5161 51.8647 68.234V43.766C51.8647 43.6263 51.8879 43.4879 51.933 43.3588C51.9781 43.2297 52.0443 43.1124 52.1277 43.0136C52.2111 42.9148 52.3102 42.8364 52.4192 42.7829C52.5282 42.7295 52.645 42.7019 52.763 42.7019H61.044C65.1236 42.7019 67.8009 45.3192 67.8009 49.3372C67.8009 52.1575 65.9997 54.6824 63.7052 55.1245V55.2718C66.8291 55.6776 68.9323 58.2395 68.9323 61.7782ZM60.1832 46.0744H55.4345V54.0182H59.4344C62.5262 54.0182 64.2313 52.5437 64.2313 49.908C64.2313 47.4383 62.7649 46.0744 60.1832 46.0744ZM55.4345 57.1702V65.9244H60.3581C63.5771 65.9244 65.2826 64.3947 65.2826 61.5197C65.2826 58.6443 63.5297 57.1698 60.1511 57.1698L55.4345 57.1702Z" fill="#7E13F8"/>
<defs>
<filter id="filter0_d_36_438" x="4.03845" y="0" width="111.923" height="119" filterUnits="userSpaceOnUse" color-interpolation-filters="sRGB">
<feFlood flood-opacity="0" result="BackgroundImageFix"/>
<feColorMatrix in="SourceAlpha" type="matrix" values="0 0 0 0 0 0 0 0 0 0 0 0 0 0 0 0 0 0 127 0" result="hardAlpha"/>
<feOffset dy="4"/>
<feGaussianBlur stdDeviation="2"/>
<feComposite in2="hardAlpha" operator="out"/>
<feColorMatrix type="matrix" values="0 0 0 0 0 0 0 0 0 0 0 0 0 0 0 0 0 0 0.25 0"/>
<feBlend mode="normal" in2="BackgroundImageFix" result="effect1_dropShadow_36_438"/>
<feBlend mode="normal" in="SourceGraphic" in2="effect1_dropShadow_36_438" result="shape"/>
</filter>
</defs>
</svg>
