<svg width="120" height="119" viewBox="0 0 120 119" fill="none" xmlns="http://www.w3.org/2000/svg">
<g filter="url(#filter0_d_37_689)">
<path d="M60 0L111.962 27.75V83.25L60 111L8.03848 83.25V27.75L60 0Z" fill="#248CD8"/>
<path d="M10.0385 28.9492L60 2.26734L109.962 28.9492V82.0508L60 108.733L10.0385 82.0508V28.9492Z" stroke="white" stroke-width="4"/>
</g>
<path d="M42.0125 76.0018L38 31H82.0893L78.0714 75.9946L60.0179 81L42.0125 76.0018Z" fill="#E44F26"/>
<path d="M60.0446 77.1751L74.6338 73.1304L78.066 34.6804H60.0446V77.1751Z" fill="#F1662A"/>
<path d="M60.0446 51.3697H52.741L52.2375 45.7179H60.0446V40.1982H46.2053L46.3375 41.6804L47.6928 56.8893H60.0446V51.3697ZM60.0446 65.7036L60.0196 65.7107L53.8732 64.0518L53.4803 59.65H47.9393L48.7125 68.3143L60.0196 71.4536L60.0446 71.4465V65.7036Z" fill="#EBEBEB"/>
<path d="M60.025 51.3697V56.8893H66.8215L66.1822 64.0482L60.025 65.709V71.4518L71.3411 68.3143L71.4232 67.3822L72.7197 52.8518L72.8554 51.3697H60.025ZM60.025 40.1982V45.7179H73.3572L73.4679 44.4786L73.7197 41.6804L73.8518 40.1982H60.025Z" fill="white"/>
<defs>
<filter id="filter0_d_37_689" x="4.03845" y="0" width="111.923" height="119" filterUnits="userSpaceOnUse" color-interpolation-filters="sRGB">
<feFlood flood-opacity="0" result="BackgroundImageFix"/>
<feColorMatrix in="SourceAlpha" type="matrix" values="0 0 0 0 0 0 0 0 0 0 0 0 0 0 0 0 0 0 127 0" result="hardAlpha"/>
<feOffset dy="4"/>
<feGaussianBlur stdDeviation="2"/>
<feComposite in2="hardAlpha" operator="out"/>
<feColorMatrix type="matrix" values="0 0 0 0 0 0 0 0 0 0 0 0 0 0 0 0 0 0 0.25 0"/>
<feBlend mode="normal" in2="BackgroundImageFix" result="effect1_dropShadow_37_689"/>
<feBlend mode="normal" in="SourceGraphic" in2="effect1_dropShadow_37_689" result="shape"/>
</filter>
</defs>
</svg>
