<svg width="120" height="119" viewBox="0 0 120 119" fill="none" xmlns="http://www.w3.org/2000/svg">
<g filter="url(#filter0_d_37_692)">
<path d="M60 0L111.962 27.75V83.25L60 111L8.03848 83.25V27.75L60 0Z" fill="#0769AD"/>
<path d="M10.0385 28.9492L60 2.26734L109.962 28.9492V82.0508L60 108.733L10.0385 82.0508V28.9492Z" stroke="white" stroke-width="4"/>
</g>
<path d="M61.7099 38.6688C60.4016 35.4855 60.5849 31.9042 62.4745 29.0229L63.887 27C61.2745 31.8959 63.762 37.9084 67.762 41.0605C68.8324 41.8982 70.0256 42.5658 71.2996 43.0397C71.6412 43.1647 72.0287 43.298 72.3829 43.3876C76.8538 44.5126 80.4975 43.7355 82.6663 40.4938C82.5996 40.5938 82.5142 40.7522 82.4059 40.9522C81.4392 42.7438 78.61 47.9876 70.4058 46.3418C70.2496 46.3105 70.0996 46.2584 69.9496 46.2105L69.8162 46.1647L69.7204 46.1334C69.6762 46.1182 69.6317 46.1036 69.5871 46.0897C69.4655 46.0479 69.3447 46.0041 69.2246 45.9584C65.9224 44.7001 63.0912 42.0501 61.7099 38.6688Z" fill="#78CFF5"/>
<path d="M50.9161 33.1792C47.714 37.9605 47.889 44.3626 50.3869 49.4209C50.8488 50.3622 51.3794 51.2681 51.9745 52.1314C52.4099 52.7835 52.889 53.5064 53.4495 54.0105C53.6807 54.2751 53.9224 54.5314 54.1682 54.7835L54.3099 54.9293L54.3578 54.9772C54.6065 55.2287 54.8615 55.4739 55.1224 55.7126L55.1245 55.7147L55.1286 55.7189C55.4436 56.0038 55.7666 56.2796 56.0974 56.546L56.1807 56.6126C56.4724 56.846 56.7703 57.0751 57.0766 57.2939L57.0891 57.3022L57.1037 57.3127C57.2016 57.3835 57.3016 57.4522 57.4016 57.5189L57.512 57.5939C57.5774 57.6372 57.642 57.6816 57.7057 57.7272C57.9245 57.8731 58.1453 58.0127 58.3703 58.1502L58.4328 58.1856L58.4641 58.2064C58.7053 58.3503 58.9491 58.4899 59.1953 58.6252L59.2599 58.6585L59.3433 58.7043C59.4516 58.7627 59.5599 58.8231 59.6724 58.8793L59.7349 58.9106C60.0572 59.0747 60.3837 59.2303 60.7141 59.3772L60.7808 59.4043C61.0909 59.5409 61.4041 59.6701 61.7203 59.7918L61.7828 59.8147C61.9974 59.8981 62.212 59.9731 62.4287 60.0481L62.537 60.0856L62.7204 60.146C62.8016 60.171 62.8829 60.2002 62.962 60.2273C63.1891 60.3064 63.4162 60.3835 63.6537 60.4252C80.183 63.2669 83.9996 50.0584 83.9996 50.0584C80.56 55.2001 73.8975 57.6543 66.7891 55.7376C66.4744 55.6516 66.1618 55.5578 65.8516 55.4564C65.7677 55.4305 65.6843 55.4027 65.6016 55.3731L65.5704 55.3626C65.3509 55.289 65.1328 55.2112 64.9162 55.1293L64.9099 55.1251C64.5505 54.9891 64.1948 54.8432 63.8433 54.6876L63.7266 54.6356C63.317 54.4504 62.914 54.2509 62.5183 54.0376L62.4308 53.9918L62.1808 53.8585C61.9525 53.7309 61.7268 53.599 61.5037 53.4626C61.063 53.1935 60.6322 52.9086 60.212 52.6085C59.9086 52.3894 59.6106 52.163 59.3183 51.9293L59.2453 51.8689C59.2028 51.8344 59.1604 51.7997 59.1182 51.7647C56.0057 49.2147 53.5391 45.7293 52.3682 41.7792C51.139 37.6792 51.4036 33.0792 53.5328 29.3458L50.9161 33.1792Z" fill="#78CFF5"/>
<path d="M37.1743 38.7439C32.7492 45.3481 33.2993 53.9419 36.6805 60.9586C36.743 61.094 36.8118 61.2273 36.8784 61.3586L36.9284 61.4586L36.9909 61.5815C37.0433 61.6907 37.0989 61.7984 37.1576 61.9044L37.1847 61.9565L37.3305 62.2273L37.3618 62.2836C37.4659 62.4753 37.5743 62.6669 37.6847 62.8586L37.7201 62.9211C37.8871 63.2123 38.0614 63.4992 38.243 63.7815L38.2805 63.844L38.4034 64.0378C38.5784 64.3086 38.7576 64.5815 38.9451 64.8503V64.8524C38.9496 64.8589 38.9544 64.8652 38.9597 64.8711L39.0097 64.9399L39.0514 64.9982C39.2139 65.2274 39.3785 65.4565 39.5472 65.6815L39.7347 65.9274C40.1431 66.4566 40.5654 66.9748 41.0014 67.4815L41.0139 67.4961L41.0243 67.5065L41.0389 67.5232C41.4809 68.0211 41.938 68.5054 42.4097 68.9753L42.4722 69.0378L42.6201 69.1836C42.8562 69.4144 43.0966 69.6408 43.341 69.8628L43.4097 69.9253L43.4639 69.9711C43.7246 70.2039 43.9885 70.4331 44.2556 70.6586L44.3722 70.7566C44.5493 70.9024 44.7285 71.0482 44.9097 71.1899L45.1952 71.417C45.3952 71.5691 45.5952 71.7191 45.7972 71.8649L45.8306 71.8899L46.0181 72.0274L46.0764 72.0691C46.2597 72.2024 46.4452 72.3274 46.6327 72.4524L46.6618 72.4732C46.7459 72.5298 46.8292 72.5874 46.9118 72.6462C47.2596 72.8744 47.6118 73.096 47.9681 73.3107L48.0806 73.3774C48.396 73.5637 48.7148 73.7443 49.0368 73.9191L49.1473 73.9795L49.2702 74.0462C49.3931 74.1128 49.5139 74.1795 49.6389 74.2441L49.691 74.2691L49.7535 74.3003L49.8243 74.3357C49.866 74.3566 49.9098 74.3774 49.9535 74.4024C50.2118 74.5295 50.4702 74.6545 50.7327 74.7774L50.8306 74.8212L50.8973 74.8524C51.5483 75.1489 52.2106 75.4199 52.8827 75.6649L52.9035 75.6712L52.991 75.7045C53.466 75.8753 53.9453 76.0337 54.4285 76.1795C54.6702 76.2608 54.914 76.3399 55.164 76.3878C76.5745 80.442 82.7933 63.0336 82.7933 63.0336C77.5703 70.0961 68.2994 71.9607 59.514 69.8857C59.1834 69.8055 58.8567 69.7103 58.5348 69.6003L58.289 69.5232C57.9723 69.4232 57.6577 69.3149 57.3452 69.2045L57.2161 69.1566C56.9348 69.0524 56.6598 68.9482 56.3827 68.8357L56.1494 68.7399C55.8477 68.6162 55.5484 68.4871 55.2515 68.3524L55.1556 68.3107C54.8733 68.1796 54.5928 68.0449 54.314 67.9065L54.2285 67.8607C54.184 67.8395 54.1395 67.8179 54.0952 67.7961L53.6494 67.5607L53.5077 67.4857C53.4613 67.4604 53.4148 67.4354 53.3681 67.4107L53.1181 67.2732C52.8806 67.1419 52.6473 67.0024 52.4139 66.8628L52.3244 66.8107L52.1785 66.7274C51.8159 66.5036 51.4575 66.273 51.1035 66.0357L51.0139 65.9732C50.1248 65.3804 49.2725 64.734 48.4618 64.0378C48.2141 63.8283 47.9697 63.6151 47.7285 63.3982L47.6952 63.3669C47.3785 63.0756 47.0673 62.7783 46.7618 62.4753C46.5854 62.301 46.4118 62.1239 46.241 61.944L46.1702 61.8732C45.9003 61.5912 45.6364 61.3036 45.3785 61.0107L45.366 60.9982L45.3618 60.9919C45.141 60.7419 44.9243 60.4836 44.7118 60.2252L44.541 60.0148C44.3229 59.7444 44.1097 59.47 43.9014 59.1919C43.7181 58.9419 43.5368 58.6961 43.3597 58.444C38.4847 51.5398 36.7326 42.0147 40.6305 34.1938L37.1743 38.7439Z" fill="#78CFF5"/>
<defs>
<filter id="filter0_d_37_692" x="4.03848" y="0" width="111.923" height="119" filterUnits="userSpaceOnUse" color-interpolation-filters="sRGB">
<feFlood flood-opacity="0" result="BackgroundImageFix"/>
<feColorMatrix in="SourceAlpha" type="matrix" values="0 0 0 0 0 0 0 0 0 0 0 0 0 0 0 0 0 0 127 0" result="hardAlpha"/>
<feOffset dy="4"/>
<feGaussianBlur stdDeviation="2"/>
<feComposite in2="hardAlpha" operator="out"/>
<feColorMatrix type="matrix" values="0 0 0 0 0 0 0 0 0 0 0 0 0 0 0 0 0 0 0.25 0"/>
<feBlend mode="normal" in2="BackgroundImageFix" result="effect1_dropShadow_37_692"/>
<feBlend mode="normal" in="SourceGraphic" in2="effect1_dropShadow_37_692" result="shape"/>
</filter>
</defs>
</svg>
