<svg width="120" height="119" viewBox="0 0 120 119" fill="none" xmlns="http://www.w3.org/2000/svg">
<g filter="url(#filter0_d_38_1355)">
<path d="M60 0L111.962 27.75V83.25L60 111L8.03848 83.25V27.75L60 0Z" fill="#2F2F2F"/>
<path d="M10.0385 28.9492L60 2.26734L109.962 28.9492V82.0508L60 108.733L10.0385 82.0508V28.9492Z" stroke="white" stroke-width="4"/>
</g>
<path d="M78.2058 47.206C77.6077 47.0008 77.0046 46.8107 76.3969 46.6359C76.499 46.2188 76.593 45.8068 76.6764 45.402C78.0458 38.7546 77.1506 33.3993 74.0928 31.6361C71.1611 29.9458 66.3665 31.7084 61.5243 35.9225C61.047 36.3386 60.5804 36.7667 60.1248 37.2063C59.8198 36.914 59.5094 36.6273 59.1938 36.3464C54.1189 31.8405 49.0321 29.9414 45.9777 31.7097C43.0486 33.4053 42.1812 38.4396 43.4141 44.7395C43.5367 45.3634 43.6752 45.9841 43.8294 46.601C43.1094 46.8056 42.4146 47.0234 41.7497 47.2552C35.7997 49.3297 32 52.5806 32 55.9527C32 59.4354 36.0792 62.9287 42.2763 65.0468C42.7787 65.2179 43.2853 65.3763 43.7956 65.5221C43.6299 66.1865 43.4827 66.8555 43.3544 67.5281C42.1791 73.7187 43.0969 78.634 46.0181 80.3188C49.0352 82.0588 54.0991 80.2705 59.0298 75.9602C59.4297 75.6098 59.8207 75.2494 60.2025 74.8795C60.6959 75.3555 61.2025 75.8177 61.7216 76.2656C66.498 80.3755 71.2151 82.035 74.1334 80.3456C77.1477 78.6006 78.1274 73.3202 76.8555 66.8959C76.7553 66.3926 76.643 65.8918 76.5186 65.3939C76.8742 65.2885 77.2232 65.1801 77.5635 65.0673C84.006 62.9328 88.1978 59.4819 88.1978 55.9527C88.1978 52.5683 84.2754 49.2954 78.2058 47.206ZM76.8085 62.7886C76.5012 62.8903 76.186 62.9884 75.8646 63.0839C75.1533 60.8322 74.1936 58.4381 73.0189 55.9643C74.1398 53.5496 75.0627 51.186 75.754 48.949C76.3289 49.1154 76.8867 49.2908 77.4245 49.4759C82.625 51.2663 85.7971 53.9131 85.7971 55.9527C85.7971 58.1251 82.3713 60.9453 76.8085 62.7886ZM74.5005 67.3621C75.0629 70.2028 75.143 72.7712 74.7705 74.7792C74.4359 76.5834 73.7629 77.7862 72.9305 78.268C71.1596 79.2932 67.3721 77.9607 63.2875 74.4457C62.8046 74.0294 62.3334 73.5997 61.8744 73.1571C63.458 71.4253 65.0406 69.4121 66.5851 67.176C69.302 66.935 71.8686 66.5407 74.1962 66.0026C74.3083 66.4534 74.4098 66.9066 74.5005 67.3621ZM51.1591 78.0909C49.4288 78.7018 48.0506 78.7194 47.2175 78.2391C45.4449 77.2167 44.708 73.2699 45.7131 67.9759C45.8326 67.3504 45.9695 66.7282 46.1234 66.1102C48.4254 66.6195 50.9734 66.9857 53.6965 67.2065C55.2516 69.3945 56.8798 71.4055 58.5208 73.1665C58.172 73.504 57.8151 73.8328 57.4501 74.1526C55.2696 76.0585 53.0847 77.4108 51.1591 78.0909ZM43.053 62.7752C40.3127 61.8385 38.0496 60.6213 36.4985 59.2929C35.1045 58.0994 34.4009 56.9142 34.4009 55.9527C34.4009 53.9063 37.4516 51.2962 42.5399 49.5222C43.1575 49.3071 43.8037 49.104 44.4744 48.9135C45.1777 51.2009 46.1002 53.5926 47.2134 56.0111C46.0857 58.4653 45.1501 60.8952 44.4399 63.2097C43.9741 63.0762 43.5117 62.9314 43.053 62.7752ZM45.7702 44.2782C44.7141 38.8808 45.4155 34.8093 47.1807 33.7875C49.0606 32.6991 53.218 34.2509 57.5999 38.1417C57.8856 38.396 58.1667 38.6554 58.4431 38.9199C56.8102 40.6732 55.197 42.6694 53.6557 44.8444C51.0126 45.0894 48.4826 45.4828 46.1566 46.0098C46.0133 45.436 45.8844 44.8587 45.7702 44.2785V44.2782ZM70.0115 50.2642C69.462 49.3152 68.8923 48.3781 68.3025 47.4536C70.0955 47.6804 71.8135 47.9814 73.4268 48.3493C72.9425 49.9017 72.3388 51.5247 71.6282 53.1887C71.1088 52.2032 70.5698 51.2281 70.0115 50.2642ZM60.1259 40.6357C61.2332 41.8354 62.3422 43.1747 63.433 44.6279C61.2202 44.5234 59.0038 44.523 56.7909 44.6266C57.8828 43.1868 59.0013 41.8492 60.1259 40.6357ZM50.1769 50.2806C49.6256 51.2369 49.0966 52.2058 48.5904 53.1867C47.8915 51.5286 47.2933 49.8982 46.8048 48.3238C48.4082 47.9651 50.1181 47.6718 51.8997 47.4492C51.3034 48.3794 50.729 49.3233 50.1769 50.2804V50.2806ZM51.9509 64.6269C50.1102 64.4214 48.3746 64.1433 46.7717 63.7942C47.2678 62.1917 47.8792 60.5266 48.5933 58.833C49.1014 59.8146 49.6326 60.7842 50.1864 61.7408C50.7558 62.7243 51.3454 63.6876 51.9509 64.6269ZM60.1922 71.4387C59.0542 70.2111 57.9193 68.8529 56.8109 67.3922C57.887 67.4344 58.984 67.4559 60.0989 67.4559C61.2444 67.4559 62.3767 67.4302 63.4912 67.3806C62.3969 68.8676 61.292 70.2278 60.1922 71.4387ZM71.6509 58.7465C72.4021 60.4588 73.0352 62.1151 73.5379 63.6902C71.9086 64.0621 70.1493 64.3615 68.2957 64.5839C68.8897 63.6422 69.4648 62.6889 70.0209 61.7244C70.5862 60.744 71.1297 59.7511 71.6509 58.7465ZM67.9414 60.5249C67.0901 62.0037 66.191 63.4544 65.2454 64.8747C63.5326 64.996 61.816 65.0563 60.0989 65.0554C58.35 65.0554 56.6489 65.001 55.0108 64.8947C54.0406 63.4777 53.1243 62.0244 52.2639 60.5381H52.2641C51.4078 59.0596 50.608 57.5491 49.8663 56.01C50.6061 54.4704 51.4035 52.9593 52.2569 51.4797L52.2567 51.4799C53.1097 49.9999 54.0187 48.5529 54.9816 47.1419C56.6528 47.0155 58.3667 46.9496 60.0987 46.9496H60.0989C61.8388 46.9496 63.5549 47.0161 65.2256 47.1434C66.1788 48.5523 67.082 49.9944 67.9335 51.4669C68.7897 52.9433 69.5977 54.4471 70.3561 55.9759C69.6055 57.5204 68.8 59.0377 67.9414 60.5249ZM72.8938 33.7159C74.7755 34.8012 75.5074 39.1778 74.3251 44.9173C74.2496 45.2834 74.1648 45.6564 74.0726 46.0346C71.7409 45.4964 69.2091 45.0962 66.5584 44.8475C65.0142 42.6485 63.4141 40.6493 61.8079 38.9186C62.2289 38.5128 62.6598 38.1175 63.1004 37.7332C67.2494 34.1227 71.1271 32.6971 72.8938 33.7159ZM60.0989 50.9344C62.8704 50.9344 65.1172 53.1812 65.1172 55.9527C65.1172 58.7241 62.8704 60.971 60.0989 60.971C57.3274 60.971 55.0806 58.7241 55.0806 55.9527C55.0806 53.1812 57.3274 50.9344 60.0989 50.9344Z" fill="#00D8FF"/>
<defs>
<filter id="filter0_d_38_1355" x="4.03845" y="0" width="111.923" height="119" filterUnits="userSpaceOnUse" color-interpolation-filters="sRGB">
<feFlood flood-opacity="0" result="BackgroundImageFix"/>
<feColorMatrix in="SourceAlpha" type="matrix" values="0 0 0 0 0 0 0 0 0 0 0 0 0 0 0 0 0 0 127 0" result="hardAlpha"/>
<feOffset dy="4"/>
<feGaussianBlur stdDeviation="2"/>
<feComposite in2="hardAlpha" operator="out"/>
<feColorMatrix type="matrix" values="0 0 0 0 0 0 0 0 0 0 0 0 0 0 0 0 0 0 0.25 0"/>
<feBlend mode="normal" in2="BackgroundImageFix" result="effect1_dropShadow_38_1355"/>
<feBlend mode="normal" in="SourceGraphic" in2="effect1_dropShadow_38_1355" result="shape"/>
</filter>
</defs>
</svg>
