<svg width="120" height="119" viewBox="0 0 120 119" fill="none" xmlns="http://www.w3.org/2000/svg">
<g filter="url(#filter0_d_37_628)">
<path d="M60 0L111.962 27.75V83.25L60 111L8.03848 83.25V27.75L60 0Z" fill="#E4529A"/>
<path d="M10.0385 28.9492L60 2.26734L109.962 28.9492V82.0508L60 108.733L10.0385 82.0508V28.9492Z" stroke="white" stroke-width="4"/>
</g>
<path d="M84.6922 59.7431C82.3549 59.7552 80.3233 60.3153 78.6225 61.1435C77.9981 59.9134 77.374 58.8176 77.264 58.0138C77.1415 57.0762 76.9948 56.5037 77.1415 55.3834C77.2884 54.263 77.9493 52.6676 77.937 52.5459C77.9249 52.4242 77.79 51.8517 76.4439 51.8397C75.0978 51.8274 73.9352 52.0954 73.8006 52.4484C73.6659 52.8015 73.409 53.6054 73.2376 54.4333C73.0051 55.6513 70.5455 59.9986 69.1383 62.2759C68.6853 61.3871 68.2937 60.6076 68.2079 59.9865C68.0856 59.049 67.9386 58.4765 68.0856 57.3562C68.2326 56.2358 68.8934 54.6406 68.8811 54.5187C68.8687 54.397 68.7341 53.8245 67.388 53.8125C66.0417 53.8002 64.8791 54.0682 64.7447 54.4212C64.6101 54.7746 64.4631 55.6025 64.1818 56.4063C63.9002 57.2102 60.6327 64.4683 59.7761 66.3434C59.43 67.1024 59.0668 67.8536 58.687 68.5964C58.687 68.5964 58.6747 68.633 58.6379 68.6938C58.5186 68.9268 58.3963 69.1582 58.271 69.388V69.4C58.0873 69.7291 57.8915 70.0333 57.7936 70.0333C57.7201 70.0333 57.5855 69.1566 57.818 67.9631C58.3075 65.4424 59.4701 61.5211 59.458 61.3871C59.458 61.314 59.6782 60.6321 58.6993 60.2788C57.7446 59.9257 57.4021 60.5102 57.3162 60.5102C57.2307 60.5102 57.1693 60.7173 57.1693 60.7173C57.1693 60.7173 58.2343 56.3089 55.138 56.3089C53.2045 56.3089 50.5365 58.4157 49.2149 60.3153C47.7124 61.129 46.2112 61.9449 44.7114 62.7632C43.9896 63.1651 43.243 63.567 42.5454 63.9444C42.4963 63.8958 42.4475 63.8347 42.3984 63.7861C38.6536 59.804 31.7272 56.9908 32.0209 51.6449C32.1311 49.6964 32.804 44.5816 45.3234 38.3709C55.6274 33.317 63.8269 34.7173 65.2465 37.8228C67.2778 42.2557 60.8532 50.4879 50.2061 51.6812C46.1432 52.1319 44.0138 50.5731 43.4755 49.9886C42.9126 49.3796 42.8267 49.343 42.6186 49.465C42.2761 49.6478 42.4963 50.1957 42.6186 50.5122C42.937 51.3401 44.2463 52.8015 46.4613 53.5202C48.4194 54.1533 53.1799 54.5066 58.9439 52.2902C65.3932 49.8058 70.4353 42.901 68.9546 37.1166C67.4736 31.2468 57.6834 29.3105 48.4194 32.5863C42.9126 34.535 36.9404 37.6036 32.645 41.5981C27.5418 46.3472 26.734 50.4757 27.0644 52.205C28.2517 58.3426 36.757 62.337 40.159 65.2962C39.9876 65.3936 39.8283 65.479 39.694 65.5521C37.9928 66.3923 31.5068 69.7654 29.8914 73.3336C28.0559 77.3766 30.1854 80.2752 31.5926 80.6646C35.9615 81.8704 40.4527 79.7028 42.8635 76.1223C45.2743 72.542 44.9806 67.89 43.8671 65.7589C43.8547 65.7347 43.8427 65.7101 43.818 65.6858C44.2586 65.4301 44.7114 65.1622 45.152 64.9065C45.9619 64.4301 46.782 63.9712 47.6119 63.5302C47.1956 64.6629 46.8896 66.0146 46.7429 67.9631C46.5592 70.2527 47.5014 73.2239 48.7375 74.3929C49.2884 74.9047 49.9369 74.9167 50.3531 74.9167C51.7971 74.9167 52.4458 73.7233 53.1678 72.3106C54.0488 70.5815 54.8443 68.5721 54.8443 68.5721C54.8443 68.5721 53.853 74.0035 56.5454 74.0035C57.5244 74.0035 58.5156 72.7369 58.9563 72.0915V72.1035C58.9563 72.1035 58.9807 72.067 59.0297 71.9818C59.1276 71.8236 59.1888 71.7259 59.1888 71.7259V71.7019C59.5803 71.0197 60.4616 69.4732 61.771 66.9036C63.4598 63.5913 65.0875 59.4509 65.0875 59.4509C65.0875 59.4509 65.2344 60.4616 65.736 62.1422C66.0299 63.1286 66.6414 64.2124 67.1311 65.2596C66.7395 65.8078 66.4947 66.112 66.4947 66.112L66.507 66.1243C66.1887 66.5382 65.8462 66.9887 65.4667 67.4275C64.1327 69.0104 62.542 70.8252 62.3216 71.3485C62.0644 71.9696 62.1258 72.4203 62.6155 72.7857C62.9703 73.0536 63.6065 73.0899 64.2552 73.0536C65.4546 72.9682 66.2989 72.676 66.7149 72.4935C67.3636 72.2621 68.1224 71.9087 68.832 71.3851C70.1416 70.423 70.9368 69.0469 70.8636 67.2327C70.8268 66.234 70.4964 65.2353 70.0925 64.2975C70.2151 64.1272 70.325 63.9567 70.4476 63.7861C72.5157 60.7781 74.1189 57.4779 74.1189 57.4779C74.1189 57.4779 74.2659 58.4885 74.7674 60.1694C75.0123 61.0218 75.5141 61.9473 75.9545 62.8483C74.0087 64.4195 72.8093 66.246 72.381 67.4395C71.6102 69.656 72.2096 70.6544 73.3479 70.8858C73.8617 70.9954 74.596 70.7518 75.1346 70.5204C75.8198 70.3013 76.6276 69.9239 77.3987 69.3635C78.7083 68.4016 79.9685 67.0619 79.895 65.2476C79.8583 64.4195 79.6381 63.6033 79.3321 62.8118C80.9842 62.1301 83.1136 61.7525 85.8302 62.069C91.6557 62.7509 92.8059 66.3677 92.5855 67.8903C92.3653 69.4123 91.1415 70.2404 90.7379 70.4961C90.3337 70.752 90.1994 70.8372 90.2361 71.0197C90.2849 71.2877 90.4807 71.2757 90.8234 71.2268C91.3008 71.1417 93.883 69.9968 93.993 67.1958C94.1767 63.6156 90.75 59.7066 84.6922 59.7431ZM39.7551 74.8193C37.8214 76.9138 35.1293 77.7054 33.9667 77.0358C32.7185 76.3171 33.2079 73.2239 35.582 71.0077C37.026 69.656 38.8862 68.4013 40.1223 67.6343C40.4036 67.4638 40.8198 67.2204 41.3216 66.9159C41.4072 66.867 41.4563 66.8428 41.4563 66.8428L41.7499 66.6599C42.6186 69.8262 41.7867 72.6152 39.7551 74.8193ZM53.8286 65.2962C53.1555 66.9282 51.7482 71.1051 50.8916 70.8737C50.1573 70.6789 49.7043 67.5126 50.7447 64.3829C51.2709 62.8118 52.3844 60.9364 53.0332 60.2059C54.0856 59.0367 55.2482 58.6468 55.5295 59.1221C55.8846 59.7431 54.2446 64.2732 53.8286 65.2962ZM65.4423 70.8249C65.1607 70.9712 64.8917 71.0686 64.7691 70.9954C64.6836 70.9466 64.8917 70.7518 64.8917 70.7518C64.8917 70.7518 66.348 69.1932 66.923 68.4868C67.2537 68.0728 67.645 67.5858 68.0612 67.0376V67.1958C68.0612 69.0592 66.2501 70.3136 65.4423 70.8249ZM74.4003 68.7913C74.1921 68.645 74.2289 68.158 74.9265 66.6357C75.1957 66.0389 75.8319 65.0405 76.9213 64.0784C77.0436 64.468 77.1294 64.8457 77.1171 65.1988C77.1047 67.5492 75.4162 68.4259 74.4003 68.7913Z" fill="white"/>
<defs>
<filter id="filter0_d_37_628" x="4.03845" y="0" width="111.923" height="119" filterUnits="userSpaceOnUse" color-interpolation-filters="sRGB">
<feFlood flood-opacity="0" result="BackgroundImageFix"/>
<feColorMatrix in="SourceAlpha" type="matrix" values="0 0 0 0 0 0 0 0 0 0 0 0 0 0 0 0 0 0 127 0" result="hardAlpha"/>
<feOffset dy="4"/>
<feGaussianBlur stdDeviation="2"/>
<feComposite in2="hardAlpha" operator="out"/>
<feColorMatrix type="matrix" values="0 0 0 0 0 0 0 0 0 0 0 0 0 0 0 0 0 0 0.25 0"/>
<feBlend mode="normal" in2="BackgroundImageFix" result="effect1_dropShadow_37_628"/>
<feBlend mode="normal" in="SourceGraphic" in2="effect1_dropShadow_37_628" result="shape"/>
</filter>
</defs>
</svg>
