<svg width="120" height="119" viewBox="0 0 120 119" fill="none" xmlns="http://www.w3.org/2000/svg">
<g filter="url(#filter0_d_37_630)">
<path d="M60 0L111.962 27.75V83.25L60 111L8.03848 83.25V27.75L60 0Z" fill="#FBFCFC"/>
<path d="M10.0385 28.9492L60 2.26734L109.962 28.9492V82.0508L60 108.733L10.0385 82.0508V28.9492Z" stroke="white" stroke-width="4"/>
</g>
<path d="M60 31C48.8001 31 41.7999 36.5557 39 47.6667C43.2 42.111 48.0999 40.0277 53.7 41.4167C56.895 42.209 59.1787 44.5088 61.7066 47.054C65.8245 51.2008 70.5902 56 81 56C92.1999 56 99.2001 50.4443 102 39.3333C97.8 44.889 92.9001 46.9723 87.3 45.5833C84.105 44.791 81.8213 42.4912 79.2934 39.946C75.1755 35.7992 70.4098 31 60 31ZM39 56C27.8001 56 20.7999 61.5557 18 72.6667C22.2 67.111 27.0999 65.0277 32.7 66.4167C35.895 67.209 38.1787 69.5088 40.7066 72.054C44.8245 76.2008 49.5902 81 60 81C71.1999 81 78.2001 75.4443 81 64.3333C76.8 69.889 71.9001 71.9723 66.3 70.5833C63.105 69.791 60.8213 67.4912 58.2934 64.946C54.1755 60.7992 49.4098 56 39 56Z" fill="url(#paint0_linear_37_630)"/>
<defs>
<filter id="filter0_d_37_630" x="4.03845" y="0" width="111.923" height="119" filterUnits="userSpaceOnUse" color-interpolation-filters="sRGB">
<feFlood flood-opacity="0" result="BackgroundImageFix"/>
<feColorMatrix in="SourceAlpha" type="matrix" values="0 0 0 0 0 0 0 0 0 0 0 0 0 0 0 0 0 0 127 0" result="hardAlpha"/>
<feOffset dy="4"/>
<feGaussianBlur stdDeviation="2"/>
<feComposite in2="hardAlpha" operator="out"/>
<feColorMatrix type="matrix" values="0 0 0 0 0 0 0 0 0 0 0 0 0 0 0 0 0 0 0.25 0"/>
<feBlend mode="normal" in2="BackgroundImageFix" result="effect1_dropShadow_37_630"/>
<feBlend mode="normal" in="SourceGraphic" in2="effect1_dropShadow_37_630" result="shape"/>
</filter>
<linearGradient id="paint0_linear_37_630" x1="15.6665" y1="47" x2="87.9246" y2="88.9961" gradientUnits="userSpaceOnUse">
<stop stop-color="#2298BD"/>
<stop offset="1" stop-color="#0ED7B5"/>
</linearGradient>
</defs>
</svg>
