<svg width="120" height="119" viewBox="0 0 120 119" fill="none" xmlns="http://www.w3.org/2000/svg">
<g filter="url(#filter0_d_38_1353)">
<path d="M60 0L111.962 27.75V83.25L60 111L8.03848 83.25V27.75L60 0Z" fill="#3178C6"/>
<path d="M10.0385 28.9492L60 2.26734L109.962 28.9492V82.0508L60 108.733L10.0385 82.0508V28.9492Z" stroke="white" stroke-width="4"/>
</g>
<path d="M73.9463 72.5596V80.1119C75.1746 80.7414 76.6274 81.2133 78.3044 81.528C79.9814 81.8428 81.7489 82 83.6071 82C85.4179 82 87.1383 81.8269 88.768 81.4807C90.3977 81.1346 91.827 80.5642 93.055 79.7698C94.2832 78.9752 95.2556 77.9367 95.9723 76.6543C96.6887 75.3721 97.0469 73.787 97.0469 71.8989C97.0469 70.5301 96.8421 69.3303 96.4327 68.2997C96.0279 67.2761 95.426 66.3419 94.6611 65.5503C93.8898 64.7477 92.9645 64.028 91.886 63.3907C90.8073 62.7536 89.5908 62.1517 88.2364 61.5854C87.2444 61.1761 86.3549 60.7791 85.5674 60.3935C84.7802 60.008 84.1108 59.6148 83.5598 59.2134C83.0086 58.8122 82.5834 58.3873 82.2843 57.9389C81.9851 57.4904 81.8355 56.9832 81.8355 56.4166C81.8355 55.8974 81.9693 55.4295 82.237 55.0125C82.5046 54.5955 82.8828 54.2376 83.3709 53.9388C83.859 53.6396 84.4573 53.4077 85.166 53.2423C85.8745 53.0771 86.662 52.9946 87.528 52.9946C88.158 52.9946 88.8232 53.0419 89.5238 53.1362C90.2246 53.2305 90.9293 53.376 91.638 53.5729C92.3445 53.7687 93.0353 54.0173 93.7046 54.3164C94.3537 54.604 94.9744 54.9516 95.5588 55.3546V48.298C94.4093 47.8575 93.1534 47.531 91.7914 47.3186C90.4294 47.1061 88.8664 47 87.1028 47C85.3077 47 83.6072 47.1928 82.001 47.5783C80.3948 47.9636 78.9814 48.5654 77.7611 49.3836C76.5407 50.202 75.5763 51.2443 74.8675 52.5109C74.1591 53.7774 73.8047 55.2917 73.8047 57.054C73.8047 59.3039 74.4541 61.2234 75.7535 62.8126C77.0526 64.4016 79.0246 65.7469 81.6701 66.8483C82.6467 67.246 83.6153 67.6631 84.5754 68.0993C85.4731 68.5083 86.2486 68.933 86.9021 69.3735C87.5556 69.814 88.0713 70.2939 88.4492 70.8131C88.8271 71.3324 89.016 71.9225 89.016 72.5834C89.0192 73.059 88.8969 73.5271 88.6616 73.9404C88.4257 74.3571 88.0672 74.7192 87.587 75.026C87.1069 75.3328 86.5083 75.5726 85.7919 75.7457C85.0755 75.9187 84.2369 76.0054 83.2763 76.0054C81.6387 76.0054 80.0169 75.7183 78.4107 75.1438C76.8043 74.5696 75.3163 73.7083 73.9463 72.5596ZM61.3584 53.7654H71.0703V47.5469H44V53.7654H53.6646V81.4531H61.3584V53.7654Z" fill="white"/>
<defs>
<filter id="filter0_d_38_1353" x="4.03845" y="0" width="111.923" height="119" filterUnits="userSpaceOnUse" color-interpolation-filters="sRGB">
<feFlood flood-opacity="0" result="BackgroundImageFix"/>
<feColorMatrix in="SourceAlpha" type="matrix" values="0 0 0 0 0 0 0 0 0 0 0 0 0 0 0 0 0 0 127 0" result="hardAlpha"/>
<feOffset dy="4"/>
<feGaussianBlur stdDeviation="2"/>
<feComposite in2="hardAlpha" operator="out"/>
<feColorMatrix type="matrix" values="0 0 0 0 0 0 0 0 0 0 0 0 0 0 0 0 0 0 0.25 0"/>
<feBlend mode="normal" in2="BackgroundImageFix" result="effect1_dropShadow_38_1353"/>
<feBlend mode="normal" in="SourceGraphic" in2="effect1_dropShadow_38_1353" result="shape"/>
</filter>
</defs>
</svg>
